<svg width="16" height="16" viewBox="0 0 16 16" fill="none" xmlns="http://www.w3.org/2000/svg">
<path d="M1.20874 8.99996H12.3787L7.49874 13.88C7.10874 14.27 7.10874 14.91 7.49874 15.3C7.88874 15.69 8.51874 15.69 8.90874 15.3L15.4987 8.70996C15.8887 8.31996 15.8887 7.68996 15.4987 7.29996L8.91874 0.699956C8.73191 0.512704 8.47826 0.407471 8.21374 0.407471C7.94922 0.407471 7.69557 0.512704 7.50874 0.699956C7.11874 1.08996 7.11874 1.71996 7.50874 2.10996L12.3787 6.99996H1.20874C0.65874 6.99996 0.20874 7.44996 0.20874 7.99996C0.20874 8.54996 0.65874 8.99996 1.20874 8.99996Z" fill="#00F0FF"/>
</svg>
