<svg width="16" height="16" viewBox="0 0 16 16" fill="none" xmlns="http://www.w3.org/2000/svg">
<path d="M14.7912 7.00496H3.62124L8.50124 2.12496C8.89124 1.73496 8.89124 1.09496 8.50124 0.704961C8.31441 0.517709 8.06076 0.412476 7.79624 0.412476C7.53172 0.412476 7.27807 0.517709 7.09124 0.704961L0.50124 7.29496C0.11124 7.68496 0.11124 8.31496 0.50124 8.70496L7.09124 15.295C7.48124 15.685 8.11124 15.685 8.50124 15.295C8.89124 14.905 8.89124 14.275 8.50124 13.885L3.62124 9.00496H14.7912C15.3412 9.00496 15.7912 8.55496 15.7912 8.00496C15.7912 7.45496 15.3412 7.00496 14.7912 7.00496Z" fill="#00F0FF"/>
</svg>
