<svg width="29" height="32" viewBox="0 0 29 32" fill="none" xmlns="http://www.w3.org/2000/svg">
<path fill-rule="evenodd" clip-rule="evenodd" d="M28 14C28 14.3362 27.9881 14.6697 27.9648 15H28C28.1666 17.3333 26.5 23.7 22.5 26.5C18.9685 28.972 13.6183 30.3268 10.2342 31.1838L10.234 31.1838C9.78509 31.2975 9.37082 31.4024 8.99997 31.5C8.99997 31.5 10.0001 29 9 28C5.85938 26.4297 3.72524 24.0542 2.32664 21.7314C1.40634 20.3447 0.726548 18.7845 0.346761 17.1104C0.103777 16.1965 6.52625e-06 15.4556 0 15H0.035164C0.011853 14.6697 0 14.3362 0 14C0 6.26801 6.26801 0 14 0C21.732 0 28 6.26801 28 14ZM17.5 24.5C13.9 24.5 12.3333 22.1667 12 21H23C22.6667 22.1667 21.1 24.5 17.5 24.5Z" fill="white"/>
</svg>
