<svg width="48" height="48" viewBox="0 0 48 48" fill="none" xmlns="http://www.w3.org/2000/svg">
<g clip-path="url(#clip0)">
<path opacity="0.6" d="M16.0001 48C20.4161 48 24.0002 44.4159 24.0002 39.9999V31.9999H16.0001C11.5841 31.9999 8 35.5839 8 39.9999C8 44.4159 11.5841 48 16.0001 48Z" fill="#BBC1FF"/>
<path opacity="0.4" d="M8.0002 24C8.0002 19.584 11.5843 15.9999 16.0003 15.9999H24.0002V31.9999H16.0001C11.5841 32.0001 8.0002 28.416 8.0002 24Z" fill="#BBC1FF"/>
<path d="M8.0002 8.00006C8.0002 3.58406 11.5841 0 16.0001 0H24.0002V15.9999H16.0001C11.5841 15.9999 8.0002 12.4161 8.0002 8.00006Z" fill="#BBC1FF"/>
<path opacity="0.8" d="M24.0001 0H32.0002C36.4162 0 40.0003 3.58405 40.0003 8.00003C40.0003 12.416 36.4162 16.0001 32.0002 16.0001H24.0001V0Z" fill="#BBC1FF"/>
<path opacity="0.6" d="M40.0001 24C40.0001 28.416 36.416 32.0001 32 32.0001C27.584 32.0001 24.0001 28.416 24.0001 24C24.0001 19.584 27.5842 15.9999 32.0002 15.9999C36.4162 15.9999 40.0001 19.584 40.0001 24Z" fill="#BBC1FF"/>
</g>
<defs>
<clipPath id="clip0">
<rect width="48" height="48" fill="white"/>
</clipPath>
</defs>
</svg>
