<svg width="72" height="72" viewBox="0 0 72 72" fill="none" xmlns="http://www.w3.org/2000/svg">
<rect width="72" height="72" rx="12" fill="#1E2459"/>
<circle opacity="0.56" cx="36" cy="36" r="20" fill="#BBC1FF"/>
<circle cx="36" cy="36" r="18" fill="#1E2459"/>
<circle opacity="0.88" cx="36" cy="36" r="17" fill="#BBC1FF"/>
<path d="M37.5 23H36.8666L35.6334 21.0261V23H35V20H35.6334L36.8687 21.978V20H37.5V23Z" fill="#1E2459"/>
<g opacity="0.64">
<rect x="25.0398" y="24.3327" width="3" height="1" transform="rotate(45 25.0398 24.3327)" fill="#1E2459"/>
<rect x="44.8388" y="44.1317" width="4" height="1" transform="rotate(45 44.8388 44.1317)" fill="#1E2459"/>
<rect x="24.3327" y="46.9601" width="4" height="1" transform="rotate(-45 24.3327 46.9601)" fill="#1E2459"/>
<rect x="44.1317" y="27.1612" width="4" height="1" transform="rotate(-45 44.1317 27.1612)" fill="#1E2459"/>
<rect x="20" y="35.5" width="4" height="1" fill="#1E2459"/>
<rect x="48" y="35.5" width="4" height="1" fill="#1E2459"/>
<rect x="36.5" y="48" width="4" height="1" transform="rotate(90 36.5 48)" fill="#1E2459"/>
</g>
<path d="M36 24L38 36H34L36 24Z" fill="#1E2459"/>
<path d="M36 42L34 36L38 36L36 42Z" fill="#1E2459"/>
</svg>
