<svg width="72" height="72" viewBox="0 0 72 72" fill="none" xmlns="http://www.w3.org/2000/svg">
<rect width="72" height="72" rx="12" fill="#1E2459"/>
<path opacity="0.64" d="M12 19C12 17.8954 12.8954 17 14 17H52C53.1046 17 54 17.8954 54 19V45H12V19Z" fill="#BBC1FF"/>
<circle cx="33" cy="19" r="1" fill="#1E2459"/>
<path opacity="0.64" d="M12 46H54V48C54 49.1046 53.1046 50 52 50H14C12.8954 50 12 49.1046 12 48V46Z" fill="#BBC1FF"/>
<rect x="14" y="21" width="38" height="22" fill="#1E2459"/>
<path opacity="0.24" d="M15 22H37L28.5 42H15V22Z" fill="#BBC1FF"/>
<path d="M47 55C45.3431 55 44 53.6569 44 52L44 32C44 30.3431 45.3431 29 47 29L57 29C58.6569 29 60 30.3431 60 32L60 52C60 53.6569 58.6569 55 57 55L47 55Z" fill="#1E2459"/>
<path opacity="0.56" d="M47 54C45.8954 54 45 53.1046 45 52L45 32C45 30.8954 45.8954 30 47 30L57 30C58.1046 30 59 30.8954 59 32L59 52C59 53.1046 58.1046 54 57 54L47 54Z" fill="#BBC1FF"/>
<circle cx="52.5" cy="31.5" r="0.5" fill="#1E2459"/>
<circle cx="52.5" cy="52.5" r="0.5" fill="#1E2459"/>
<rect x="58" y="33" width="18" height="12" transform="rotate(90 58 33)" fill="#1E2459"/>
<path opacity="0.24" d="M47 50L47 34L57 34L49.5 50L47 50Z" fill="#BBC1FF"/>
</svg>
