<svg width="49" height="48" viewBox="0 0 49 48" fill="none" xmlns="http://www.w3.org/2000/svg">
<mask id="mask0" mask-type="alpha" maskUnits="userSpaceOnUse" x="2" y="1" width="46" height="46">
<path d="M2.05663 1.32123H47.6122V46.986H2.05663V1.32123Z" fill="white"/>
</mask>
<g mask="url(#mask0)">
<path fill-rule="evenodd" clip-rule="evenodd" d="M35.6458 4.08598C34.5538 4.92598 33.7174 5.95198 33.1666 7.20358C33.0106 7.55878 32.779 7.25158 32.623 7.17958C30.8758 6.37798 29.0494 5.82718 27.1438 5.61718C21.535 5.00038 16.5682 6.52918 12.3502 10.2936C8.98184 13.2984 6.96824 17.0916 6.34783 21.5508C5.16463 30.048 9.72704 38.1012 17.5054 41.3892C24.9382 44.532 33.001 42.786 38.5378 36.8748C41.3398 33.8832 42.9226 30.2868 43.3738 26.1996C43.7179 23.1611 43.2959 20.0848 42.1462 17.2512C41.9782 16.8324 42.0478 16.6692 42.4738 16.5072C43.615 16.0728 44.5378 15.3144 45.325 14.3724C49.225 21.78 48.6058 33.6204 39.8098 41.3664C31.1698 48.9744 17.929 48.8352 9.54944 41.082C0.791835 32.9796 -0.452566 19.782 6.68144 10.3764C13.7902 1.00798 26.311 -1.09442 35.647 4.08598" fill="#BBC1FF"/>
</g>
<path fill-rule="evenodd" clip-rule="evenodd" d="M35.209 24.2076C35.1922 29.9196 30.4894 34.5996 24.8002 34.566C19.0618 34.5336 14.4562 29.85 14.4766 24.066C14.4946 18.4116 19.219 13.7316 24.877 13.7664C30.589 13.8012 35.2258 18.4872 35.209 24.2064V24.2076ZM35.065 9.93363C35.0601 9.31325 35.1781 8.69804 35.4122 8.12352C35.6464 7.549 35.992 7.02653 36.4291 6.58629C36.8662 6.14604 37.3862 5.79673 37.959 5.55853C38.5319 5.32032 39.1462 5.19793 39.7666 5.19843C42.355 5.20203 44.4874 7.35123 44.473 9.94683C44.4598 12.5256 42.283 14.6928 39.7222 14.6748C37.1842 14.658 35.0686 12.504 35.0662 9.93363" fill="#BBC1FF"/>
</svg>
