<svg width="35" height="36" viewBox="0 0 35 36" fill="none" xmlns="http://www.w3.org/2000/svg">
<path fill-rule="evenodd" clip-rule="evenodd" d="M0.057373 0.720062H34.8002V35.2801H0.057373V0.720062ZM18.9801 27.6434V16.6118H15.7221V27.6425C15.7221 28.4151 15.5672 28.942 15.2573 29.2243C14.9474 29.5075 14.5212 29.6482 13.9779 29.6482C13.4346 29.6482 13.0085 29.4941 12.6976 29.1858C12.439 28.9806 12.1553 28.5943 11.8454 28.0297L9.20821 29.5711C10.1379 31.5778 11.7669 32.5807 14.0941 32.5807C15.5933 32.5807 16.7826 32.1693 17.661 31.3466C18.5404 30.5229 18.9801 29.2889 18.9801 27.6434ZM26.6574 32.5806C28.2602 32.5806 29.5657 32.1818 30.5739 31.3851C31.5821 30.5874 32.0866 29.4689 32.0866 28.0287C32.0866 26.7436 31.7244 25.7147 31.001 24.943C30.3289 24.2744 29.2432 23.6059 27.743 22.9373L26.9683 22.629C26.1925 22.2687 25.6628 21.9604 25.378 21.7032C25.0933 21.446 24.9519 21.0982 24.9519 20.6618C24.9519 20.2244 25.0933 19.8776 25.378 19.6204C25.6628 19.3632 26.0366 19.235 26.5024 19.235C26.9673 19.235 27.3682 19.3372 27.7043 19.5433C28.0404 19.7485 28.3377 20.1088 28.5963 20.6223L31.1559 19.0029C30.6388 18.078 30.0054 17.4085 29.2558 16.9971C28.5062 16.5858 27.5881 16.3806 26.5024 16.3806C25.0546 16.3806 23.8914 16.791 23.013 17.6137C22.1337 18.4374 21.694 19.4653 21.694 20.7003C21.694 21.9344 22.0562 22.9633 22.7796 23.786C23.4004 24.4546 24.3573 25.0461 25.6492 25.5605L26.425 25.9459C27.3557 26.3573 27.9503 26.6655 28.2089 26.8717C28.6224 27.18 28.8287 27.5788 28.8287 28.0672C28.8287 28.5557 28.6224 28.9545 28.2089 29.2628C27.7953 29.5711 27.252 29.7252 26.5799 29.7252C25.288 29.7252 24.2275 29.0576 23.4004 27.7204L20.7633 29.2628C21.2716 30.2305 22.0192 31.0537 22.9356 31.6548C23.9689 32.2714 25.2095 32.5797 26.6574 32.5797V32.5806Z" fill="#BBC1FF"/>
</svg>
