<svg width="148" height="148" viewBox="0 0 148 148" fill="none" xmlns="http://www.w3.org/2000/svg">
<g opacity="0.82">
<path d="M45 47.3845C45 47.3845 47.2458 44 52.2427 44C57.2397 44 59.4855 47.3845 59.4855 47.3845" stroke="white" stroke-linecap="round"/>
<path d="M59.4855 47.3845C59.4855 47.3845 61.7313 44 66.7282 44C71.7251 44 73.971 47.3845 73.971 47.3845" stroke="white" stroke-linecap="round"/>
<path d="M73.971 47.3845C73.971 47.3845 76.2168 44 81.2137 44C86.2107 44 88.4565 47.3845 88.4565 47.3845" stroke="white" stroke-linecap="round"/>
<path d="M88.4565 47.3845C88.4565 47.3845 90.7023 44 95.6992 44C100.696 44 102.942 47.3845 102.942 47.3845" stroke="white" stroke-linecap="round"/>
<path d="M52.2427 58.7689C52.2427 58.7689 49.9969 55.3844 45 55.3844" stroke="white" stroke-linecap="round"/>
<path d="M52.2427 58.7689C52.2427 58.7689 54.4885 55.3844 59.4855 55.3844C64.4824 55.3844 66.7282 58.7689 66.7282 58.7689" stroke="white" stroke-linecap="round"/>
<path d="M66.7282 58.7689C66.7282 58.7689 68.9741 55.3844 73.971 55.3844C78.9679 55.3844 81.2137 58.7689 81.2137 58.7689" stroke="white" stroke-linecap="round"/>
<path d="M81.2137 58.7689C81.2137 58.7689 83.4595 55.3844 88.4565 55.3844C93.4534 55.3844 95.6992 58.7689 95.6992 58.7689" stroke="white" stroke-linecap="round"/>
<path d="M95.6992 58.7689C95.6992 58.7689 97.945 55.3844 102.942 55.3844" stroke="white" stroke-linecap="round"/>
<path d="M45 70.1534C45 70.1534 47.2458 66.7689 52.2427 66.7689C57.2397 66.7689 59.4855 70.1534 59.4855 70.1534" stroke="white" stroke-linecap="round"/>
<path d="M59.4855 70.1534C59.4855 70.1534 61.7313 66.7689 66.7282 66.7689C71.7251 66.7689 73.971 70.1534 73.971 70.1534" stroke="white" stroke-linecap="round"/>
<path d="M73.971 70.1534C73.971 70.1534 76.2168 66.7689 81.2137 66.7689C86.2107 66.7689 88.4565 70.1534 88.4565 70.1534" stroke="white" stroke-linecap="round"/>
<path d="M88.4565 70.1534C88.4565 70.1534 90.7023 66.7689 95.6992 66.7689C100.696 66.7689 102.942 70.1534 102.942 70.1534" stroke="white" stroke-linecap="round"/>
<path d="M52.2427 81.5378C52.2427 81.5378 49.9969 78.1533 45 78.1533" stroke="white" stroke-linecap="round"/>
<path d="M52.2427 81.5378C52.2427 81.5378 54.4885 78.1533 59.4855 78.1533C64.4824 78.1533 66.7282 81.5378 66.7282 81.5378" stroke="white" stroke-linecap="round"/>
<path d="M66.7282 81.5378C66.7282 81.5378 68.9741 78.1533 73.971 78.1533C78.9679 78.1533 81.2137 81.5378 81.2137 81.5378" stroke="white" stroke-linecap="round"/>
<path d="M81.2137 81.5378C81.2137 81.5378 83.4595 78.1533 88.4565 78.1533C93.4534 78.1533 95.6992 81.5378 95.6992 81.5378" stroke="white" stroke-linecap="round"/>
<path d="M95.6992 81.5378C95.6992 81.5378 97.945 78.1533 102.942 78.1533" stroke="white" stroke-linecap="round"/>
<path d="M45 92.9223C45 92.9223 47.2458 89.5378 52.2427 89.5378C57.2397 89.5378 59.4855 92.9223 59.4855 92.9223" stroke="white" stroke-linecap="round"/>
<path d="M59.4855 92.9223C59.4855 92.9223 61.7313 89.5378 66.7282 89.5378C71.7251 89.5378 73.971 92.9223 73.971 92.9223" stroke="white" stroke-linecap="round"/>
<path d="M73.971 92.9223C73.971 92.9223 76.2168 89.5378 81.2137 89.5378C86.2107 89.5378 88.4565 92.9223 88.4565 92.9223" stroke="white" stroke-linecap="round"/>
<path d="M88.4565 92.9223C88.4565 92.9223 90.7023 89.5378 95.6992 89.5378C100.696 89.5378 102.942 92.9223 102.942 92.9223" stroke="white" stroke-linecap="round"/>
<path d="M52.2427 104.307C52.2427 104.307 49.9969 100.922 45 100.922" stroke="white" stroke-linecap="round"/>
<path d="M52.2427 104.307C52.2427 104.307 54.4885 100.922 59.4855 100.922C64.4824 100.922 66.7282 104.307 66.7282 104.307" stroke="white" stroke-linecap="round"/>
<path d="M66.7282 104.307C66.7282 104.307 68.9741 100.922 73.971 100.922C78.9679 100.922 81.2137 104.307 81.2137 104.307" stroke="white" stroke-linecap="round"/>
<path d="M81.2137 104.307C81.2137 104.307 83.4595 100.922 88.4565 100.922C93.4534 100.922 95.6992 104.307 95.6992 104.307" stroke="white" stroke-linecap="round"/>
<path d="M95.6992 104.307C95.6992 104.307 97.945 100.922 102.942 100.922" stroke="white" stroke-linecap="round"/>
</g>
<path d="M132.653 78.0063C132.69 77.4977 132.843 77.0527 133.112 76.6714C133.381 76.29 133.737 76.0054 134.182 75.8174C134.627 75.6295 135.134 75.5564 135.703 75.5982L137.498 75.7299C138.096 75.7739 138.616 75.9274 139.058 76.1904C139.51 76.4542 139.845 76.8047 140.064 77.2419C140.292 77.6798 140.387 78.168 140.347 78.7066L140.266 79.8136C140.241 80.1527 140.138 80.471 139.955 80.7684C139.772 81.0758 139.534 81.314 139.241 81.483L143.026 81.7609L142.947 82.838L132.475 82.0692L132.552 81.022L133.659 81.1033C133.307 80.8468 133.029 80.5257 132.827 80.1398C132.635 79.7547 132.552 79.3876 132.577 79.0386L132.653 78.0063ZM133.537 79.0789C133.513 79.3981 133.59 79.7146 133.768 80.0284C133.955 80.343 134.207 80.6071 134.522 80.8207C134.837 81.0344 135.168 81.164 135.516 81.2096L137.401 81.3479C137.935 81.3169 138.378 81.149 138.731 80.844C139.084 80.549 139.277 80.1722 139.311 79.7134L139.388 78.6662C139.425 78.1576 139.261 77.7294 138.896 77.3817C138.539 77.0447 138.047 76.8532 137.419 76.807L135.623 76.6753C135.065 76.6342 134.596 76.7452 134.215 77.008C133.844 77.2816 133.642 77.6478 133.608 78.1065L133.537 79.0789Z" fill="white"/>
<path d="M131.438 86.5774C131.623 85.7581 132.012 85.154 132.602 84.7648C133.203 84.3779 133.903 84.2751 134.702 84.4562L136.794 84.9302C137.633 85.1202 138.25 85.5214 138.644 86.1336C139.048 86.7481 139.158 87.465 138.972 88.2842L138.7 89.4838C138.523 90.264 138.132 90.8367 137.526 91.2019C136.921 91.5671 136.208 91.6569 135.389 91.4713L134.102 91.1797L135.341 85.7084L134.464 85.5095C133.957 85.3946 133.508 85.4519 133.117 85.6813C132.735 85.9227 132.487 86.2921 132.374 86.7895L132.122 87.9013C132.012 88.3889 132.054 88.8137 132.249 89.1757C132.453 89.5399 132.78 89.7729 133.228 89.8745L132.996 90.8985C132.275 90.735 131.745 90.3586 131.407 89.7694C131.078 89.1823 131.005 88.4889 131.186 87.6892L131.438 86.5774ZM135.247 90.3319L135.628 90.418C136.164 90.5396 136.625 90.4954 137.011 90.2854C137.407 90.0777 137.658 89.7398 137.764 89.2717L138.036 88.0721C138.148 87.5747 138.069 87.1313 137.799 86.7419C137.526 86.3622 137.112 86.1094 136.556 85.9835L136.248 85.9139L135.247 90.3319Z" fill="white"/>
<path d="M128.389 103.481L130.432 99.3538L128.304 97.0949L128.809 96.0733L136.429 104.347L136.203 104.804C136.057 105.1 135.771 105.227 135.346 105.184L128.89 104.565L128.883 104.579L128.856 104.565L124.796 104.179L125.302 103.158L128.389 103.481ZM131.113 100.075L129.376 103.584L134.919 104.152L134.926 104.139L131.113 100.075Z" fill="white"/>
<path d="M129.406 110.666L128.792 111.518L127.892 110.868C128.049 111.265 128.112 111.681 128.082 112.116C128.052 112.55 127.929 112.917 127.712 113.217L127.115 114.044C126.711 114.604 126.196 114.916 125.569 114.982C124.936 115.055 124.312 114.87 123.695 114.425L119.597 111.467L120.229 110.591L124.352 113.567C124.725 113.836 125.096 113.962 125.466 113.946C125.836 113.929 126.132 113.766 126.354 113.458L126.916 112.68C127.191 112.299 127.293 111.842 127.221 111.309C127.144 110.785 126.899 110.312 126.487 109.891L122.705 107.161L123.337 106.286L129.406 110.666Z" fill="white"/>
<path d="M113.874 113.102C114.337 112.632 114.848 112.37 115.406 112.317C115.957 112.256 116.457 112.412 116.905 112.783L116.147 113.552C115.905 113.37 115.64 113.298 115.35 113.335C115.046 113.373 114.775 113.513 114.536 113.755L113.662 114.642C113.297 115.012 113.141 115.42 113.194 115.865C113.232 116.31 113.473 116.75 113.914 117.185L114.737 117.996C114.678 117.629 114.707 117.25 114.824 116.86C114.942 116.485 115.116 116.179 115.348 115.944L116.116 115.165C116.475 114.801 116.879 114.562 117.331 114.445C117.783 114.329 118.239 114.343 118.7 114.488C119.161 114.633 119.594 114.906 120 115.306L121.25 116.538C121.884 117.163 122.218 117.85 122.251 118.599C122.278 119.355 121.997 120.033 121.407 120.631L120.67 121.379C120.445 121.606 120.149 121.778 119.783 121.894C119.416 122.01 119.066 122.037 118.733 121.976L119.331 122.566L118.594 123.313L113.156 117.954C112.508 117.316 112.171 116.646 112.144 115.947C112.118 115.247 112.403 114.594 113 113.989L113.874 113.102ZM116.032 116.618C115.681 116.974 115.521 117.414 115.553 117.937C115.585 118.474 115.801 118.975 116.201 119.438L117.515 120.733C117.906 121.063 118.335 121.219 118.802 121.201C119.268 121.198 119.663 121.032 119.986 120.705L120.702 119.978C121.074 119.601 121.241 119.168 121.202 118.681C121.163 118.193 120.926 117.735 120.492 117.307L119.242 116.075C118.843 115.682 118.413 115.463 117.953 115.416C117.494 115.384 117.102 115.532 116.779 115.86L116.032 116.618Z" fill="white"/>
<path d="M108.919 121.275C109.595 120.776 110.293 120.584 111.012 120.7C111.731 120.815 112.343 121.214 112.848 121.898L114.069 123.551C114.574 124.235 114.776 124.937 114.675 125.658C114.566 126.386 114.169 127.002 113.485 127.507L112.496 128.237C111.812 128.742 111.111 128.937 110.392 128.822C109.664 128.713 109.048 128.316 108.543 127.632L107.322 125.98C106.817 125.296 106.619 124.59 106.728 123.863C106.838 123.136 107.238 122.517 107.93 122.006L108.919 121.275ZM108.5 122.778C108.066 123.099 107.821 123.491 107.766 123.955C107.716 124.426 107.858 124.887 108.191 125.338L109.412 126.991C109.745 127.441 110.141 127.708 110.6 127.791C111.065 127.883 111.507 127.774 111.926 127.465L112.915 126.734C113.333 126.426 113.567 126.035 113.617 125.564C113.672 125.1 113.533 124.643 113.201 124.193L111.979 122.54C111.641 122.081 111.246 121.807 110.794 121.718C110.343 121.629 109.908 121.739 109.49 122.048L108.5 122.778Z" fill="white"/>
<path d="M102.034 125.817C102.677 125.45 103.214 125.322 103.646 125.432C104.082 125.551 104.482 125.928 104.844 126.562L109.039 133.908L108.101 134.444L103.906 127.097C103.717 126.767 103.516 126.566 103.301 126.492C103.078 126.424 102.814 126.477 102.51 126.65L102.068 126.903L101.591 126.07L102.034 125.817Z" fill="white"/>
<path d="M97.1785 128.022C97.8508 127.737 98.4636 127.684 99.0169 127.863C99.561 128.045 99.9577 128.431 100.207 129.021L100.394 129.463C100.64 130.043 100.629 130.596 100.363 131.121C100.096 131.646 99.6222 132.053 98.9407 132.341L98.0565 132.715C97.7525 132.844 97.4199 132.93 97.0586 132.974C96.6973 133.019 96.3684 133.011 96.0719 132.952L96.5569 134.099C96.7206 134.485 96.9728 134.748 97.3135 134.886C97.6582 135.034 98.0285 135.023 98.4246 134.856L99.5298 134.389C99.9258 134.221 100.205 133.995 100.366 133.709C100.528 133.424 100.544 133.129 100.416 132.825L101.41 132.404C101.648 132.966 101.627 133.507 101.348 134.027C101.072 134.556 100.589 134.967 99.898 135.259L98.7927 135.726C98.1112 136.015 97.4775 136.044 96.8916 135.814C96.3004 135.597 95.8665 135.162 95.5899 134.508L93.5503 129.686L94.4898 129.289L94.8988 130.256C94.9704 129.835 95.1403 129.454 95.4085 129.112C95.6674 128.775 95.9811 128.528 96.3495 128.372L97.1785 128.022ZM96.6901 129.254C96.2572 129.437 95.9269 129.734 95.6991 130.146C95.4713 130.557 95.391 131.009 95.4583 131.501L95.6745 132.013C95.9327 132.11 96.2491 132.139 96.6235 132.1C96.9926 132.074 97.3475 131.989 97.6883 131.845L98.5725 131.471C98.9501 131.311 99.2178 131.084 99.3754 130.789C99.5238 130.499 99.5318 130.197 99.3994 129.884L99.2124 129.442C99.076 129.119 98.8564 128.908 98.5535 128.808C98.2507 128.708 97.915 128.736 97.5466 128.892L96.6901 129.254Z" fill="white"/>
<path d="M84.534 131.826C85.3418 131.685 86.0341 131.812 86.6111 132.209C87.1898 132.615 87.5498 133.222 87.6911 134.03L88.0607 136.143C88.2089 136.99 88.0816 137.713 87.6787 138.311C87.2775 138.919 86.678 139.293 85.8801 139.433L84.6685 139.645C83.91 139.777 83.2622 139.672 82.7251 139.33C82.188 138.987 81.8592 138.471 81.7386 137.782L82.7729 137.601C82.8435 138.005 83.0383 138.306 83.3572 138.504C83.668 138.713 84.0499 138.778 84.503 138.699L85.7146 138.487C86.1973 138.403 86.5562 138.162 86.7914 137.766C87.0266 137.369 87.0951 136.89 86.9969 136.329L86.6272 134.216C86.5359 133.694 86.3149 133.301 85.9642 133.038C85.6037 132.776 85.1821 132.687 84.6995 132.772L83.4879 132.984C83.0249 133.064 82.6839 133.292 82.465 133.665C82.2362 134.04 82.1692 134.498 82.264 135.04L81.2297 135.221C81.0866 134.403 81.2076 133.702 81.5925 133.117C81.9775 132.532 82.5541 132.172 83.3224 132.038L84.534 131.826Z" fill="white"/>
<path d="M75.5422 132.746C76.3819 132.723 77.0637 132.965 77.5876 133.471C78.1114 133.977 78.3849 134.655 78.4078 135.504L78.4633 137.559C78.4863 138.408 78.2499 139.1 77.7541 139.634C77.2484 140.167 76.5707 140.446 75.721 140.469L74.4914 140.502C73.6417 140.525 72.955 140.283 72.4311 139.777C71.8972 139.272 71.6188 138.594 71.5959 137.744L71.5403 135.69C71.5174 134.84 71.7588 134.148 72.2645 133.615C72.7703 133.081 73.453 132.802 74.3127 132.779L75.5422 132.746ZM74.3386 133.739C73.7988 133.753 73.3736 133.935 73.0629 134.283C72.7525 134.642 72.6048 135.101 72.6199 135.661L72.6755 137.715C72.6906 138.275 72.8627 138.72 73.1918 139.052C73.5211 139.393 73.9457 139.556 74.4655 139.542L75.695 139.509C76.2148 139.495 76.63 139.309 76.9404 138.95C77.2511 138.602 77.3989 138.148 77.3837 137.588L77.3282 135.534C77.3128 134.964 77.1456 134.513 76.8265 134.182C76.5074 133.85 76.088 133.691 75.5682 133.705L74.3386 133.739Z" fill="white"/>
<path d="M59.3919 138.984C58.7409 138.875 58.2634 138.577 57.9595 138.091C57.644 137.612 57.5481 137.003 57.6717 136.263L58.5294 131.129L59.5946 131.307L58.732 136.471C58.6595 136.905 58.7012 137.262 58.8573 137.541C59.0134 137.821 59.2542 137.988 59.5797 138.042L60.423 138.183C60.8471 138.254 61.2211 138.169 61.5451 137.929C61.8691 137.689 62.1142 137.314 62.2804 136.805L63.101 131.893L64.1663 132.071L63.3185 137.146C63.241 137.609 63.2746 137.985 63.4191 138.273C63.5522 138.569 63.7765 138.743 64.0922 138.796L64.9355 138.936C65.3399 139.004 65.7246 138.886 66.0897 138.582C66.4548 138.278 66.7246 137.846 66.8991 137.287L67.6727 132.657L68.738 132.834L67.5046 140.217L66.4689 140.044L66.6469 138.979C66.387 139.321 66.0918 139.571 65.7613 139.728C65.4308 139.886 65.1028 139.938 64.7773 139.883L63.9044 139.738C63.4901 139.668 63.1523 139.505 62.891 139.249C62.6182 139.001 62.4351 138.671 62.3415 138.26C62.0487 138.617 61.7281 138.867 61.3795 139.012C61.0309 139.156 60.6692 139.197 60.2944 139.135L59.3919 138.984Z" fill="white"/>
<path d="M49.4629 127.421C50.2265 127.771 50.7317 128.289 50.9785 128.974C51.2253 129.659 51.1715 130.388 50.8172 131.161L49.9605 133.029C49.6061 133.801 49.0887 134.318 48.4084 134.578C47.7189 134.834 46.9879 134.785 46.2152 134.43L45.0971 133.918C44.3245 133.563 43.8148 133.044 43.5679 132.358C43.312 131.669 43.3613 130.938 43.7156 130.165L44.5723 128.298C44.9267 127.525 45.4486 127.011 46.1381 126.755C46.8275 126.499 47.5631 126.55 48.3449 126.909L49.4629 127.421ZM47.9447 127.781C47.4538 127.556 46.9921 127.531 46.5594 127.707C46.1226 127.892 45.7875 128.239 45.5541 128.748L44.6974 130.616C44.4639 131.125 44.4217 131.6 44.5709 132.043C44.7158 132.494 45.0247 132.828 45.4973 133.045L46.6154 133.558C47.0881 133.775 47.5428 133.791 47.9796 133.606C48.4122 133.43 48.7453 133.088 48.9787 132.579L49.8355 130.711C50.0731 130.193 50.1219 129.715 49.9818 129.276C49.8418 128.838 49.5354 128.511 49.0627 128.294L47.9447 127.781Z" fill="white"/>
<path d="M40.1548 131.143L39.2668 130.582L39.8833 129.606C39.5274 129.795 39.1216 129.876 38.6658 129.848C38.2017 129.816 37.7835 129.682 37.4114 129.447L36.8533 129.095L37.3737 128.27L37.9319 128.623C38.4731 128.964 39.0223 129.068 39.5794 128.935C40.1228 128.805 40.5732 128.457 40.9309 127.89L43.2367 124.237L44.1501 124.813L40.1548 131.143Z" fill="white"/>
<path d="M38.2792 116.939C38.7848 117.363 39.0866 117.851 39.1846 118.403C39.289 118.948 39.174 119.458 38.8394 119.935L38.0121 119.241C38.1743 118.985 38.2251 118.714 38.1647 118.429C38.1029 118.129 37.9418 117.87 37.6814 117.651L36.7276 116.851C36.3293 116.517 35.9103 116.394 35.4708 116.482C35.0301 116.556 34.6104 116.83 34.2119 117.305L33.4694 118.19C33.8308 118.102 34.2104 118.1 34.6084 118.186C34.9922 118.273 35.3105 118.423 35.5633 118.635L36.4022 119.339C36.7929 119.667 37.0643 120.051 37.2164 120.492C37.3686 120.933 37.3907 121.389 37.2828 121.859C37.1749 122.33 36.9378 122.784 36.5713 123.221L35.4431 124.565C34.871 125.247 34.2128 125.634 33.4685 125.728C32.7166 125.815 32.0189 125.588 31.3754 125.048L30.571 124.374C30.3259 124.168 30.1309 123.887 29.9862 123.53C29.8414 123.174 29.7863 122.827 29.8207 122.491L29.2807 123.134L28.4763 122.459L33.3845 116.611C33.9695 115.914 34.6098 115.524 35.3054 115.442C36.0009 115.36 36.6743 115.592 37.3255 116.139L38.2792 116.939ZM34.9462 119.37C34.5632 119.049 34.1122 118.925 33.5934 118.999C33.0604 119.074 32.5788 119.329 32.1483 119.764L30.9622 121.177C30.665 121.594 30.5438 122.034 30.5986 122.497C30.6392 122.962 30.8357 123.342 31.1881 123.638L31.9695 124.294C32.3756 124.634 32.8201 124.766 33.3031 124.688C33.7861 124.61 34.2236 124.338 34.6158 123.871L35.744 122.526C36.104 122.097 36.2886 121.652 36.2979 121.19C36.2931 120.729 36.1145 120.35 35.7621 120.055L34.9462 119.37Z" fill="white"/>
<path d="M29.9426 112.914C30.3976 113.433 30.5902 114.009 30.5204 114.642C30.4506 115.275 30.1299 115.842 29.5585 116.343L25.7579 119.676L25.0457 118.864L28.8689 115.512C29.2223 115.202 29.4322 114.865 29.4985 114.501C29.5574 114.143 29.4648 113.825 29.2208 113.547L28.6076 112.848C28.3042 112.502 27.8849 112.305 27.3495 112.255C26.8142 112.206 26.2997 112.325 25.8061 112.611L22.2761 115.707L21.564 114.895L27.1916 109.96L27.884 110.749L27.0269 111.501C27.4493 111.436 27.8759 111.468 28.307 111.595C28.738 111.723 29.0722 111.922 29.3096 112.192L29.9426 112.914Z" fill="white"/>
<path d="M24.6903 106.264C25.1102 106.873 25.2833 107.398 25.2096 107.837C25.1276 108.282 24.7861 108.712 24.1849 109.126L17.2181 113.925L16.6053 113.036L23.5721 108.237C23.885 108.021 24.0689 107.803 24.1238 107.583C24.173 107.355 24.0983 107.097 23.8997 106.809L23.6103 106.389L24.4009 105.844L24.6903 106.264Z" fill="white"/>
<path d="M13.7714 108.611L13.2673 107.656L16.8491 105.766C16.4322 105.726 16.0469 105.595 15.6931 105.375C15.3393 105.155 15.0761 104.881 14.9033 104.554L14.4132 103.625C14.0911 103.015 14.0399 102.414 14.2595 101.824C14.4744 101.224 14.918 100.747 15.5901 100.392L20.0608 98.0328L20.565 98.9879L16.0678 101.361C15.6609 101.576 15.3829 101.853 15.2338 102.191C15.0847 102.53 15.0989 102.867 15.2762 103.203L15.7384 104.079C15.9578 104.495 16.3221 104.789 16.8314 104.961C17.3272 105.129 17.8505 105.124 18.4013 104.946L22.5536 102.755L23.0577 103.71L13.7714 108.611Z" fill="white"/>
<path d="M18.3622 93.0504C18.6336 93.8454 18.6056 94.5682 18.2782 95.2188C17.9508 95.8694 17.3849 96.3319 16.5804 96.6064L14.6355 97.2701C13.8311 97.5446 13.1004 97.5245 12.4435 97.2098C11.7834 96.8856 11.3161 96.3213 11.0415 95.5169L10.6442 94.3528C10.3696 93.5484 10.396 92.8209 10.7234 92.1703C11.0475 91.5102 11.6118 91.0429 12.4163 90.7684L14.3612 90.1048C15.1656 89.8302 15.8979 89.8551 16.558 90.1793C17.2181 90.5034 17.6871 91.0725 17.9649 91.8864L18.3622 93.0504ZM17.0564 92.1964C16.8819 91.6854 16.5821 91.3333 16.157 91.1403C15.7224 90.9505 15.2401 90.946 14.7101 91.1269L12.7652 91.7905C12.2352 91.9714 11.861 92.2681 11.6426 92.6808C11.4147 93.0967 11.3848 93.5507 11.5527 94.0428L11.9501 95.2068C12.118 95.699 12.4193 96.0399 12.854 96.2297C13.2791 96.4228 13.7567 96.4289 14.2867 96.248L16.2316 95.5843C16.771 95.4003 17.1516 95.1066 17.3732 94.7034C17.5948 94.3002 17.6217 93.8526 17.4537 93.3605L17.0564 92.1964Z" fill="white"/>
<path d="M12.6404 81.1452C12.6896 81.5421 12.6105 81.8794 12.4031 82.157C12.1845 82.426 11.8767 82.585 11.4798 82.6342C11.0828 82.6834 10.7505 82.6037 10.4828 82.395C10.2039 82.1777 10.0399 81.8705 9.99067 81.4735C9.94147 81.0766 10.0261 80.7436 10.2447 80.4747C10.4522 80.1971 10.7543 80.0337 11.1513 79.9845C11.5483 79.9353 11.8862 80.0194 12.165 80.2367C12.4327 80.4454 12.5912 80.7482 12.6404 81.1452Z" fill="white"/>
<path d="M15.3639 69.5427C15.3229 70.0511 15.1667 70.4948 14.8953 70.874C14.6239 71.2532 14.265 71.5349 13.8187 71.7192C13.3725 71.9036 12.8653 71.9725 12.2972 71.9262L10.5031 71.7797C9.90512 71.7309 9.38613 71.5732 8.94616 71.3065C8.49623 71.039 8.16358 70.6858 7.9482 70.2468C7.72286 69.807 7.63192 69.318 7.67537 68.7797L7.7647 67.6733C7.79206 67.3344 7.89795 67.017 8.08236 66.721C8.26758 66.4151 8.50737 66.1788 8.80174 66.0122L5.01931 65.7035L5.10622 64.627L15.5714 65.4812L15.4869 66.5277L14.3806 66.4374C14.7309 66.6968 15.0057 67.0202 15.2052 67.4077C15.3947 67.7944 15.4754 68.1622 15.4472 68.5111L15.3639 69.5427ZM14.488 68.4629C14.5137 68.1439 14.439 67.8268 14.2638 67.5115C14.0786 67.1954 13.8292 66.9292 13.5156 66.713C13.202 66.4968 12.8716 66.3644 12.5244 66.316L10.6406 66.1623C10.1067 66.1889 9.66208 66.3533 9.30661 66.6554C8.95196 66.9475 8.75612 67.3228 8.7191 67.7813L8.63461 68.8279C8.59357 69.3363 8.75452 69.7658 9.11748 70.1165C9.47127 70.4564 9.96213 70.652 10.59 70.7032L12.3841 70.8497C12.9422 70.8952 13.4124 70.7881 13.7945 70.5283C14.1675 70.2578 14.3725 69.8932 14.4095 69.4347L14.488 68.4629Z" fill="white"/>
<path d="M16.6327 61.0191C16.4408 61.8369 16.0481 62.4381 15.4545 62.8227C14.8512 63.2051 14.1504 63.3026 13.3521 63.1153L11.2638 62.6255C10.4265 62.4291 9.813 62.0232 9.42324 61.408C9.02375 60.7904 8.91994 60.0727 9.11182 59.255L9.3928 58.0575C9.57554 57.2786 9.97114 56.7089 10.5796 56.3483C11.188 55.9878 11.9012 55.9034 12.719 56.0952L14.0041 56.3967L12.7226 61.8583L13.5988 62.0639C14.1051 62.1826 14.5542 62.1288 14.9463 61.9024C15.331 61.6639 15.5816 61.2964 15.6981 60.7999L15.9585 59.69C16.0727 59.2033 16.0338 58.7781 15.8417 58.4147C15.6399 58.0489 15.3151 57.8135 14.8673 57.7085L15.1071 56.6862C15.8276 56.8552 16.3546 57.2356 16.6882 57.8275C17.0121 58.417 17.0804 59.111 16.8931 59.9093L16.6327 61.0191ZM12.852 57.2357L12.4723 57.1467C11.9368 57.0211 11.4753 57.0617 11.0878 57.2687C10.6905 57.4734 10.4371 57.8094 10.3274 58.2767L10.0465 59.4742C9.92996 59.9707 10.0055 60.4147 10.2732 60.8062C10.5431 61.1879 10.9556 61.4439 11.5105 61.574L11.8172 61.646L12.852 57.2357Z" fill="white"/>
<path d="M19.7817 44.161L17.7078 48.2725L19.8198 50.5471L19.3064 51.5649L11.7481 43.2346L11.9778 42.7792C12.1264 42.4846 12.4131 42.3603 12.8378 42.4065L19.2891 43.0726L19.2958 43.0592L19.3226 43.0727L23.3798 43.4891L22.8664 44.5069L19.7817 44.161ZM17.0328 47.5458L18.7959 44.0502L13.2568 43.441L13.25 43.4544L17.0328 47.5458Z" fill="white"/>
<path d="M18.6334 37.2137L19.2511 36.3646L20.1488 37.0175C19.993 36.6198 19.9309 36.2037 19.9626 35.7692C19.9942 35.3347 20.1189 34.9679 20.3366 34.6687L20.9366 33.8439C21.3426 33.2859 21.8591 32.9753 22.4863 32.9122C23.1194 32.8409 23.7432 33.0288 24.3578 33.4758L28.4459 36.4491L27.8105 37.3225L23.6982 34.3315C23.3262 34.0609 22.9553 33.9333 22.5854 33.9487C22.2156 33.9642 21.9189 34.1255 21.6954 34.4328L21.1306 35.2091C20.8541 35.5891 20.7507 36.0457 20.8205 36.5787C20.8962 37.1036 21.1391 37.5771 21.5494 37.9991L25.322 40.743L24.6867 41.6164L18.6334 37.2137Z" fill="white"/>
<path d="M34.2333 34.7426C33.7666 35.2093 33.2539 35.4674 32.6952 35.5169C32.1436 35.5734 31.6451 35.4143 31.1996 35.0396L31.9633 34.276C32.2037 34.4598 32.4689 34.534 32.7589 34.4987C33.0629 34.4633 33.3352 34.3255 33.5756 34.0851L34.456 33.2048C34.8237 32.8371 34.9829 32.4305 34.9334 31.9851C34.898 31.5397 34.6611 31.0977 34.2227 30.6594L33.4059 29.8427C33.4625 30.2104 33.4307 30.5887 33.3104 30.9775C33.1902 31.3523 33.0134 31.6563 32.7801 31.8896L32.0057 32.6639C31.6451 33.0245 31.2385 33.2613 30.7859 33.3745C30.3333 33.4876 29.8772 33.4699 29.4175 33.3214C28.9579 33.173 28.5265 32.8972 28.1235 32.4942L26.8824 31.2533C26.253 30.624 25.9242 29.9346 25.8959 29.1851C25.8747 28.4286 26.1611 27.7534 26.7551 27.1594L27.4976 26.417C27.7239 26.1908 28.0209 26.0211 28.3886 25.9079C28.7564 25.7948 29.1064 25.7701 29.4388 25.8337L28.8448 25.2398L29.5873 24.4973L34.9864 29.8957C35.6299 30.5392 35.9623 31.2109 35.9835 31.9109C36.0047 32.6108 35.7148 33.2613 35.1137 33.8623L34.2333 34.7426ZM32.1012 31.2109C32.4548 30.8573 32.6174 30.419 32.5891 29.8957C32.5609 29.3584 32.3487 28.8564 31.9527 28.3897L30.648 27.0852C30.2591 26.7529 29.8312 26.5938 29.3645 26.6079C28.8978 26.6079 28.5018 26.7705 28.1765 27.0958L27.4552 27.817C27.0804 28.1917 26.9107 28.623 26.946 29.1109C26.9814 29.5988 27.2148 30.0584 27.6461 30.4897L28.8872 31.7306C29.2832 32.1265 29.711 32.3492 30.1707 32.3987C30.6303 32.4341 31.0228 32.2891 31.3481 31.9639L32.1012 31.2109Z" fill="white"/>
<path d="M39.2856 26.5316C38.6062 27.0257 37.9074 27.2125 37.189 27.092C36.4707 26.9715 35.8615 26.5675 35.3614 25.8802L34.1524 24.2184C33.6524 23.5311 33.4556 22.8272 33.5621 22.1067C33.6768 21.3803 34.0778 20.7672 34.7652 20.2672L35.7599 19.5437C36.4473 19.0438 37.1502 18.854 37.8686 18.9746C38.595 19.0892 39.2083 19.4902 39.7083 20.1775L40.9173 21.8393C41.4173 22.5266 41.6101 23.2335 41.4954 23.9598C41.3808 24.6862 40.9758 25.3023 40.2803 25.8081L39.2856 26.5316ZM39.7155 25.0318C40.1522 24.7142 40.3999 24.3238 40.4587 23.8607C40.5116 23.3894 40.3733 22.9274 40.0439 22.4745L38.8349 20.8128C38.5055 20.3599 38.1113 20.0902 37.6525 20.0034C37.1878 19.9086 36.7452 20.0142 36.3247 20.32L35.33 21.0435C34.9094 21.3494 34.6727 21.7379 34.6198 22.2092C34.5611 22.6723 34.6964 23.1303 35.0258 23.5832L36.2348 25.2449C36.5701 25.7059 36.9632 25.9826 37.4139 26.0752C37.8646 26.1678 38.3002 26.0612 38.7208 25.7553L39.7155 25.0318Z" fill="white"/>
<path d="M46.2153 22.0128C45.57 22.375 45.0319 22.4992 44.6011 22.3855C44.1654 22.2631 43.7689 21.8836 43.4115 21.247L39.2702 13.8699L40.212 13.3414L44.3533 20.7184C44.5394 21.0498 44.7394 21.2529 44.9534 21.3277C45.1762 21.3976 45.4401 21.347 45.7454 21.1757L46.1901 20.9261L46.66 21.7632L46.2153 22.0128Z" fill="white"/>
<path d="M50.7907 19.9514C50.1173 20.2332 49.5043 20.2838 48.9517 20.1031C48.4083 19.9186 48.013 19.5312 47.7659 18.9408L47.5805 18.498C47.3372 17.9169 47.3498 17.3642 47.6181 16.84C47.8865 16.3157 48.362 15.9107 49.0446 15.625L49.9302 15.2544C50.2346 15.127 50.5676 15.0419 50.9291 14.999C51.2905 14.9561 51.6194 14.9648 51.9157 15.0251L51.4349 13.8767C51.2727 13.4893 51.0215 13.2258 50.6813 13.0864C50.3372 12.9377 49.9668 12.9464 49.5701 13.1124L48.4632 13.5756C48.0665 13.7417 47.7869 13.9671 47.6243 14.252C47.4616 14.5368 47.444 14.8315 47.5715 15.1359L46.5752 15.5528C46.3397 14.9901 46.3626 14.4493 46.6441 13.9304C46.9217 13.4023 47.4064 12.9935 48.0982 12.7039L49.2052 12.2407C49.8878 11.955 50.5217 11.9282 51.1067 12.1603C51.6971 12.3794 52.1293 12.8164 52.4035 13.4713L54.425 18.3003L53.4841 18.6941L53.0786 17.7255C53.0055 18.1464 52.8342 18.527 52.5647 18.8674C52.3045 19.204 51.9899 19.4495 51.6209 19.6039L50.7907 19.9514ZM51.2837 18.7206C51.7173 18.5392 52.0487 18.2433 52.278 17.8329C52.5074 17.4226 52.5893 16.9709 52.5239 16.478L52.3096 15.966C52.0517 15.868 51.7355 15.8377 51.3609 15.8752C50.9917 15.8996 50.6365 15.9833 50.2951 16.1261L49.4096 16.4967C49.0314 16.655 48.7629 16.8812 48.6041 17.1753C48.4546 17.4655 48.4455 17.7675 48.5768 18.0811L48.7621 18.5239C48.8973 18.8467 49.1161 19.0587 49.4186 19.1597C49.7211 19.2608 50.0568 19.2341 50.4258 19.0797L51.2837 18.7206Z" fill="white"/>
<path d="M63.7458 16.0876C62.937 16.2227 62.2456 16.0897 61.6717 15.6888C61.0961 15.278 60.7408 14.6682 60.6057 13.8594L60.2522 11.7438C60.1105 10.8955 60.2434 10.1738 60.6509 9.57849C61.0567 8.97337 61.6591 8.60409 62.458 8.47065L63.6712 8.26802C64.4307 8.14117 65.0777 8.25109 65.6121 8.59779C66.1465 8.94448 66.4714 9.46305 66.5868 10.1535L65.5511 10.3265C65.4835 9.92206 65.2911 9.61963 64.9737 9.41918C64.6646 9.20721 64.2831 9.13912 63.8294 9.2149L62.6162 9.41753C62.1329 9.49825 61.7721 9.73593 61.5339 10.1306C61.2957 10.5252 61.2235 11.0036 61.3175 11.5658L61.6709 13.6815C61.7583 14.2043 61.9762 14.5987 62.3249 14.8649C62.6834 15.1295 63.1043 15.2214 63.5876 15.1407L64.8008 14.9381C65.2643 14.8606 65.607 14.6361 65.8288 14.2645C66.0605 13.8912 66.131 13.4334 66.0404 12.8909L67.076 12.7179C67.2128 13.5366 67.0865 14.2369 66.6971 14.819C66.3077 15.4012 65.7283 15.7565 64.959 15.8849L63.7458 16.0876Z" fill="white"/>
<path d="M72.5627 15.2164C71.7228 15.2326 71.0429 14.9856 70.5229 14.4754C70.0029 13.9653 69.7347 13.2854 69.7182 12.4355L69.6783 10.3809C69.6618 9.53106 69.9034 8.8413 70.4033 8.31161C70.9131 7.78173 71.5929 7.50863 72.4427 7.49232L73.6725 7.46871C74.5224 7.4524 75.2073 7.6993 75.7273 8.20942C76.2573 8.71934 76.5305 9.39922 76.547 10.2491L76.5869 12.3037C76.6034 13.1535 76.3567 13.8434 75.8469 14.3733C75.3371 14.9031 74.6523 15.1763 73.7924 15.1928L72.5627 15.2164ZM73.7738 14.233C74.3137 14.2227 74.7403 14.0444 75.0537 13.6984C75.3668 13.3423 75.518 12.8843 75.5071 12.3244L75.4672 10.2698C75.4564 9.70989 75.2876 9.26305 74.9611 8.92925C74.6344 8.58546 74.2111 8.41855 73.6912 8.42853L72.4614 8.45214C71.9415 8.46212 71.5249 8.64514 71.2118 9.00122C70.8985 9.3473 70.7472 9.80028 70.7581 10.3602L70.798 12.4148C70.809 12.9847 70.9728 13.4366 71.2894 13.7706C71.6059 14.1046 72.0241 14.2666 72.544 14.2566L73.7738 14.233Z" fill="white"/>
<path d="M88.6021 8.98761C89.2527 9.09824 89.7289 9.39729 90.0307 9.88477C90.344 10.3641 90.4371 10.9733 90.31 11.7124L89.428 16.8422L88.3633 16.6611L89.2504 11.5018C89.325 11.0682 89.2848 10.7114 89.13 10.4315C88.9752 10.1516 88.7351 9.98401 88.4098 9.92869L87.5669 9.78538C87.143 9.7133 86.7685 9.7967 86.4433 10.0356C86.1181 10.2744 85.8712 10.6483 85.7025 11.1573L84.8586 16.0652L83.7939 15.8842L84.6657 10.8136C84.7454 10.3504 84.7136 9.97477 84.5703 9.68668C84.4386 9.39042 84.215 9.21546 83.8995 9.16182L83.0566 9.01851C82.6524 8.94978 82.267 9.06683 81.9004 9.36966C81.5338 9.6725 81.2619 10.103 81.0848 10.6612L80.2892 15.2883L79.2244 15.1073L80.4928 7.73053L81.528 7.90653L81.345 8.97092C81.6065 8.62994 81.903 8.38111 82.2343 8.22443C82.5657 8.06775 82.894 8.01707 83.2193 8.07239L84.0918 8.22074C84.5059 8.29114 84.843 8.45496 85.1031 8.71221C85.3749 8.96128 85.5566 9.29141 85.6482 9.70259C85.9427 9.34692 86.2647 9.09736 86.614 8.95389C86.9634 8.81042 87.3254 8.77054 87.7 8.83423L88.6021 8.98761Z" fill="white"/>
<path d="M98.5992 20.5777C97.8383 20.2219 97.337 19.7005 97.0953 19.0135C96.8536 18.3265 96.9128 17.598 97.2729 16.828L98.1435 14.9665C98.5035 14.1966 99.0247 13.6841 99.707 13.429C100.398 13.1783 101.129 13.2329 101.899 13.5929L103.013 14.1139C103.783 14.4739 104.289 14.9974 104.531 15.6844C104.782 16.3757 104.727 17.1063 104.367 17.8763L103.496 19.7378C103.136 20.5077 102.61 21.0181 101.919 21.2689C101.228 21.5197 100.493 21.4629 99.7135 21.0987L98.5992 20.5777ZM100.12 20.2291C100.609 20.4578 101.071 20.4859 101.505 20.3135C101.943 20.132 102.281 19.7876 102.518 19.2803L103.388 17.4189C103.626 16.9116 103.671 16.4362 103.526 15.9927C103.384 15.5401 103.078 15.2037 102.607 14.9835L101.492 14.4625C101.021 14.2422 100.567 14.2229 100.129 14.4044C99.6946 14.5768 99.359 14.9167 99.1218 15.4239L98.2512 17.2854C98.0097 17.8018 97.9574 18.2796 98.0942 18.7188C98.231 19.1581 98.5349 19.4879 99.0059 19.7081L100.12 20.2291Z" fill="white"/>
<path d="M107.964 16.8884L108.848 17.4552L108.224 18.4274C108.582 18.2408 108.988 18.1628 109.443 18.1936C109.907 18.2298 110.325 18.3666 110.695 18.6042L111.25 18.9605L110.724 19.7811L110.168 19.4248C109.63 19.0793 109.081 18.9711 108.523 19.1003C107.979 19.2264 107.526 19.5714 107.164 20.1354L104.832 23.7715L103.922 23.1884L107.964 16.8884Z" fill="white"/>
<path d="M109.7 31.0177C109.196 30.5917 108.896 30.1024 108.8 29.5499C108.698 29.005 108.815 28.495 109.151 28.0198L109.976 28.717C109.813 28.9719 109.761 29.2424 109.82 29.5283C109.881 29.8283 110.041 30.0881 110.301 30.3075L111.252 31.1112C111.649 31.4469 112.067 31.5715 112.507 31.485C112.948 31.4125 113.369 31.1396 113.769 30.6661L114.515 29.7841C114.153 29.8712 113.773 29.8711 113.376 29.7838C112.992 29.6953 112.674 29.5445 112.422 29.3315L111.586 28.6246C111.197 28.2954 110.927 27.9101 110.776 27.4686C110.626 27.0271 110.605 26.5712 110.715 26.1008C110.824 25.6304 111.063 25.1776 111.431 24.7423L112.564 23.4021C113.139 22.7224 113.798 22.3372 114.543 22.2464C115.295 22.1621 115.992 22.3911 116.634 22.9333L117.436 23.6111C117.68 23.8177 117.874 24.0995 118.017 24.4564C118.161 24.8133 118.215 25.1601 118.179 25.4965L118.721 24.8551L119.523 25.5329L114.594 31.3633C114.006 32.0582 113.365 32.4455 112.669 32.5251C111.973 32.6047 111.3 32.3701 110.651 31.8214L109.7 31.0177ZM113.042 28.5984C113.424 28.9212 113.875 29.0466 114.394 28.9747C114.927 28.9017 115.409 28.6484 115.842 28.2148L117.033 26.8059C117.331 26.3906 117.454 25.9511 117.401 25.4872C117.362 25.0222 117.167 24.6412 116.816 24.3442L116.037 23.6858C115.632 23.3437 115.188 23.2106 114.705 23.2866C114.221 23.3625 113.783 23.6334 113.389 24.0993L112.256 25.4395C111.894 25.8671 111.708 26.312 111.697 26.7741C111.7 27.235 111.878 27.614 112.229 27.9109L113.042 28.5984Z" fill="white"/>
<path d="M118.162 35.18C117.71 34.6579 117.522 34.0806 117.596 33.448C117.671 32.8154 117.996 32.2506 118.571 31.7537L122.396 28.4486L123.102 29.2657L119.254 32.5904C118.899 32.8977 118.686 33.2332 118.617 33.5968C118.556 33.9538 118.646 34.2724 118.888 34.5523L119.496 35.2559C119.797 35.6039 120.215 35.8045 120.75 35.8576C121.285 35.9107 121.8 35.7958 122.296 35.5129L125.848 32.4432L126.555 33.2602L120.891 38.1542L120.204 37.3598L121.067 36.6144C120.644 36.6758 120.218 36.6412 119.788 36.5106C119.358 36.3801 119.025 36.1786 118.789 35.9062L118.162 35.18Z" fill="white"/>
<path d="M123.41 41.8807C122.995 41.2683 122.826 40.7427 122.902 40.3039C122.988 39.8595 123.332 39.4324 123.936 39.0227L130.938 34.2743L131.545 35.1681L124.543 39.9164C124.228 40.1297 124.043 40.3461 123.986 40.5657C123.935 40.7935 124.008 41.0522 124.205 41.3419L124.491 41.7639L123.696 42.3028L123.41 41.8807Z" fill="white"/>
<path d="M134.402 39.6647L134.899 40.6235L131.303 42.4871C131.72 42.5303 132.104 42.6633 132.456 42.8863C132.808 43.1093 133.07 43.385 133.24 43.7135L133.723 44.6457C134.041 45.2583 134.088 45.8591 133.864 46.4483C133.644 47.0463 133.197 47.5201 132.522 47.8699L128.034 50.1959L127.537 49.2371L132.052 46.8972C132.46 46.6856 132.74 46.4109 132.892 46.0733C133.044 45.7356 133.032 45.3981 132.857 45.0608L132.401 44.1819C132.185 43.7646 131.823 43.468 131.315 43.292C130.82 43.1203 130.297 43.1212 129.745 43.2947L125.577 45.4551L125.079 44.4963L134.402 39.6647Z" fill="white"/>
<path d="M129.73 55.2174C129.464 54.4204 129.498 53.6979 129.83 53.0498C130.162 52.4016 130.732 51.9434 131.538 51.6749L133.488 51.0259C134.295 50.7575 135.025 50.7831 135.68 51.1027C136.337 51.4319 136.8 51.9997 137.069 52.8062L137.457 53.9732C137.726 54.7797 137.694 55.507 137.362 56.1551C137.033 56.8127 136.465 57.2757 135.658 57.5441L133.708 58.1931C132.902 58.4616 132.17 58.4312 131.512 58.1021C130.855 57.7729 130.39 57.2004 130.118 56.3844L129.73 55.2174ZM131.029 56.0812C131.2 56.5936 131.497 56.9479 131.921 57.1441C132.354 57.3372 132.836 57.3453 133.367 57.1684L135.317 56.5194C135.848 56.3426 136.225 56.0487 136.446 55.6377C136.677 55.2235 136.711 54.7698 136.547 54.2764L136.158 53.1094C135.994 52.616 135.695 52.2728 135.262 52.0797C134.838 51.8835 134.361 51.8738 133.829 52.0506L131.879 52.6996C131.339 52.8796 130.956 53.1704 130.731 53.5719C130.507 53.9734 130.476 54.4208 130.641 54.9142L131.029 56.0812Z" fill="white"/>
<path d="M135.399 67.2709C135.353 66.8736 135.434 66.5369 135.644 66.2609C135.865 65.9936 136.174 65.8369 136.571 65.7908C136.968 65.7447 137.3 65.8269 137.566 66.0377C137.843 66.2571 138.005 66.5656 138.051 66.9629C138.097 67.3602 138.01 67.6925 137.789 67.9597C137.58 68.2358 137.276 68.3968 136.879 68.443C136.482 68.4891 136.144 68.4024 135.867 68.183C135.601 67.9722 135.445 67.6682 135.399 67.2709Z" fill="white"/>
</svg>
