<svg width="48" height="48" viewBox="0 0 48 48" fill="none" xmlns="http://www.w3.org/2000/svg">
<path d="M35.3846 12.9999L29.7892 10.5385H18.188L12.627 13.0456L8.00015 18.1851L24 39.4617L39.9999 18.1855L35.3846 12.9999ZM38.6667 18.3231L33.6067 22.1096L30.0086 16.718L35.0997 14.322L38.6667 18.3231ZM31.7491 22.6865H15.9545L19.0981 17.1026L28.5128 17.1252L31.7491 22.6865ZM19.2242 11.3718H28.8618L33.6067 13.4642L28.8417 15.5399H19.2043L14.4868 13.4659L19.2242 11.3718ZM12.8898 14.322L17.6641 16.7151L14.2451 22.003L9.32264 18.3231L12.8898 14.322ZM11.1572 21.1108L14.2678 23.7337L21.6688 35.913L11.1572 21.1108ZM16.3859 24.4189H31.383L24 38.0258L16.3859 24.4189ZM26.3207 35.913L33.7217 23.7337L36.8323 21.1108L26.3207 35.913Z" fill="#BBC1FF"/>
</svg>
