<svg width="81" height="48" viewBox="0 0 81 48" fill="none" xmlns="http://www.w3.org/2000/svg">
<g clip-path="url(#clip0)">
<path d="M7.48754 0H73.1246C77.2788 0 80.6414 3.36258 80.6414 7.51677V32.5713C80.6414 36.7255 77.2788 40.0881 73.1246 40.0881H49.5863L52.8172 48L38.6082 40.0881H7.52012C3.36625 40.0881 0.00343069 36.7255 0.00343069 32.5713V7.51677C-0.0292331 3.39548 3.33303 0 7.48754 0ZM4.59561 6.85097C4.13657 7.44065 3.94012 8.19484 4.07141 9.0471C6.00528 21.3394 7.80819 29.6329 9.4798 33.9271C10.1353 35.5 10.8892 36.2542 11.7743 36.1887C13.1511 36.0903 14.7898 34.189 16.724 30.4848C17.7401 28.3871 19.3133 25.2403 21.4443 21.0445C23.2143 27.2397 25.6401 31.8945 28.6885 35.0087C29.5411 35.8935 30.4259 36.2868 31.2782 36.2213C32.0321 36.1558 32.6217 35.7623 33.0156 35.0413C33.3433 34.4184 33.4746 33.6971 33.4088 32.8781C33.2121 29.8952 33.5072 25.7319 34.3266 20.3887C35.1785 14.8819 36.2275 10.9158 37.5063 8.55548C37.7685 8.06387 37.8669 7.57226 37.834 6.98226C37.7685 6.22839 37.4404 5.60548 36.8179 5.11387C36.195 4.62226 35.5069 4.3929 34.7527 4.45806C33.8021 4.52387 33.0808 4.9829 32.5895 5.90064C30.5572 9.60452 29.1146 15.6032 28.2624 23.929C27.0169 20.7823 25.9682 17.0777 25.1485 12.7184C24.7879 10.7845 23.903 9.86677 22.4608 9.96516C21.4775 10.0306 20.6579 10.6861 20.0021 11.9319L12.8233 25.601C11.6433 20.8481 10.5288 15.0458 9.5127 8.19484C9.28335 6.49 8.3327 5.70355 6.66077 5.83484C5.7427 5.90032 5.05464 6.22806 4.59561 6.85097ZM75.0388 11.9974C73.8588 9.93226 72.1214 8.68677 69.7943 8.19484C69.1714 8.06387 68.5817 7.99839 68.024 7.99839C64.8772 7.99839 62.3204 9.63742 60.3208 12.9155C58.6159 15.7016 57.764 18.7829 57.764 22.1594C57.764 24.6832 58.2885 26.8468 59.3372 28.6497C60.5172 30.7148 62.2546 31.9603 64.5817 32.4519C65.2043 32.5832 65.7943 32.6487 66.3521 32.6487C69.5314 32.6487 72.0882 31.0097 74.0553 27.7316C75.7598 24.9126 76.6121 21.8313 76.6121 18.4552C76.645 15.8981 76.0875 13.7674 75.0388 11.9974ZM70.9085 21.0774C70.4495 23.2406 69.6298 24.8468 68.4169 25.9287C67.4666 26.781 66.5814 27.1413 65.7621 26.9777C64.9753 26.8139 64.3195 26.1258 63.8279 24.8471C63.434 23.831 63.2379 22.8148 63.2379 21.8642C63.2379 21.0448 63.3034 20.2252 63.4672 19.4716C63.7624 18.1274 64.3195 16.8161 65.2043 15.5706C66.2863 13.9642 67.4334 13.309 68.6134 13.5384C69.4001 13.7023 70.0559 14.3906 70.5475 15.669C70.9411 16.6852 71.1375 17.7013 71.1375 18.6519C71.1379 19.5039 71.0724 20.3232 70.9085 21.0774ZM54.5188 11.9974C53.3388 9.93226 51.5685 8.68677 49.2743 8.19484C48.6517 8.06387 48.0617 7.99839 47.504 7.99839C44.3572 7.99839 41.8004 9.63742 39.8008 12.9155C38.0963 15.7016 37.244 18.7829 37.244 22.1594C37.244 24.6832 37.7685 26.8468 38.8172 28.6497C39.9972 30.7148 41.7346 31.9603 44.0617 32.4519C44.6846 32.5832 45.2743 32.6487 45.8321 32.6487C49.0114 32.6487 51.5682 31.0097 53.5353 27.7316C55.2401 24.9126 56.0921 21.8313 56.0921 18.4552C56.0921 15.8981 55.5675 13.7674 54.5188 11.9974ZM50.3559 21.0774C49.8969 23.2406 49.0772 24.8468 47.8646 25.9287C46.914 26.781 46.0288 27.1413 45.2092 26.9777C44.4227 26.8139 43.7672 26.1258 43.275 24.8471C42.8817 23.831 42.6853 22.8148 42.6853 21.8642C42.6853 21.0448 42.7508 20.2252 42.9146 19.4716C43.2098 18.1274 43.7669 16.8161 44.6521 15.5706C45.7337 13.9642 46.8811 13.309 48.0608 13.5384C48.8475 13.7023 49.5034 14.3906 49.995 15.669C50.3888 16.6852 50.585 17.7013 50.585 18.6519C50.6182 19.5039 50.5195 20.3232 50.3559 21.0774Z" fill="#BBC1FF"/>
</g>
<defs>
<clipPath id="clip0">
<rect width="80.6452" height="48" fill="white"/>
</clipPath>
</defs>
</svg>
