<svg width="48" height="48" viewBox="0 0 48 48" fill="none" xmlns="http://www.w3.org/2000/svg">
<path fill-rule="evenodd" clip-rule="evenodd" d="M0 48H48V0H0V48ZM2.8125 45.1875H45.1875V2.8125H2.8125V45.1875Z" fill="#BBC1FF"/>
<path d="M13.7307 17.0251L17.7132 22.9651L21.6732 17.0251H25.0257L19.3332 25.125L24.8457 33H21.4932L17.7132 27.285L13.9108 33H10.5358L16.0483 25.125L10.3557 17.0251H13.7307Z" fill="#BBC1FF"/>
<path d="M30.5382 33.225C27.0768 33.225 24.9356 30.3398 24.9356 27.1049C24.9356 23.4374 27.4049 21.0074 30.2006 21.0074C32.5689 21.0074 33.7928 22.6049 34.183 23.2799V16.5749H37.198V29.5349C37.198 29.8499 37.6404 30.4201 37.8955 30.4349V33C37.3703 33.1048 36.9428 33.1575 36.6129 33.1575C34.436 33.1575 34.633 30.9524 34.633 30.9524C34.1979 31.7027 32.901 33.225 30.5382 33.225ZM31.3257 30.6599C33.2175 30.6599 34.078 28.965 34.1831 28.6799V25.8674C34.0629 25.5376 32.983 23.5724 31.1457 23.5724C29.0925 23.5724 28.0632 25.6093 28.0632 27.1724C28.0632 28.8906 29.3268 30.6599 31.3257 30.6599Z" fill="#BBC1FF"/>
<path d="M24 17.0248V18.4844L25.0257 17.0248H24Z" fill="#BBC1FF"/>
<path d="M24 32.9999H24.8457L24 31.7917V32.9999Z" fill="#BBC1FF"/>
</svg>
