<svg width="48" height="48" viewBox="0 0 48 48" fill="none" xmlns="http://www.w3.org/2000/svg">
<mask id="mask0" mask-type="alpha" maskUnits="userSpaceOnUse" x="1" y="31" width="43" height="10">
<path d="M1.2 31.14H43.0344V40.7604H1.2V31.14Z" fill="white"/>
</mask>
<g mask="url(#mask0)">
<path fill-rule="evenodd" clip-rule="evenodd" d="M24.828 40.7521C16.7688 40.8169 10.2456 38.6209 4.3788 34.3945C3.38236 33.6761 2.43246 32.8954 1.5348 32.0569C1.4616 31.9885 1.3836 31.9213 1.3224 31.8409C1.1964 31.6801 1.146 31.5037 1.2768 31.3201C1.416 31.1221 1.6164 31.0957 1.8144 31.1989C2.1744 31.3825 2.5212 31.5901 2.8728 31.7869C6.978 34.0801 11.3472 35.6449 15.9576 36.5617C19.4591 37.2655 23.0341 37.5348 26.6016 37.3633C31.8174 37.1048 36.9454 35.9195 41.7456 33.8629L41.9196 33.7921C42.3756 33.6265 42.7668 33.7321 42.9516 34.0693C43.1244 34.3897 43.032 34.7053 42.63 35.0113C41.2176 36.0877 39.6876 36.9673 38.0784 37.7149C35.3064 39.0001 32.4036 39.8545 29.3916 40.3621C27.6132 40.6621 25.8276 40.7965 24.828 40.7521Z" fill="#BBC1FF"/>
</g>
<path fill-rule="evenodd" clip-rule="evenodd" d="M24.7428 16.6164C24.3828 18.108 24.0492 19.4904 23.718 20.8752C23.28 22.704 22.8468 24.534 22.4088 26.3628C22.248 27.03 22.062 27.174 21.384 27.1824C21.0036 27.1872 20.6244 27.1884 20.244 27.1824C19.6392 27.1716 19.47 27.0528 19.29 26.4648C18.33 23.3292 17.3736 20.1912 16.4184 17.0544C16.1508 16.1736 15.882 15.2928 15.63 14.4072C15.462 13.8192 15.5808 13.6776 16.1904 13.6752C16.5708 13.6752 16.95 13.6728 17.3304 13.6764C17.982 13.6812 18.1596 13.8012 18.324 14.4324C18.8112 16.2996 19.284 18.1716 19.7628 20.0424C20.1276 21.4692 20.4924 22.896 20.9304 24.3324C21.0684 23.7684 21.2112 23.2044 21.3444 22.638C21.984 19.9236 22.62 17.208 23.2608 14.4924C23.418 13.8228 23.5944 13.6848 24.2832 13.6764C24.6504 13.6728 25.0188 13.6692 25.386 13.6776C25.998 13.692 26.166 13.812 26.3088 14.4132C26.9952 17.286 27.6708 20.1612 28.3512 23.0352C28.464 23.5104 28.5756 23.9856 28.7592 24.4716C28.8708 24.0564 28.9872 23.6424 29.0952 23.2248C29.8392 20.3544 30.5796 17.4828 31.32 14.6124C31.5312 13.7928 31.6824 13.6764 32.5272 13.6764H33.6288C33.9492 13.6764 34.0908 13.83 34.0584 14.1528C34.0284 14.4576 33.9096 14.7384 33.8184 15.0264C32.6376 18.8064 31.4508 22.5852 30.264 26.364C30.0384 27.0816 29.904 27.18 29.1552 27.1836C28.8132 27.1836 28.4712 27.186 28.1292 27.1824C27.4608 27.174 27.2868 27.0384 27.1284 26.3892C26.4192 23.4828 25.7124 20.5764 25.0056 17.67C24.9288 17.3532 24.8484 17.0376 24.7416 16.6164" fill="#BBC1FF"/>
<mask id="mask1" mask-type="alpha" maskUnits="userSpaceOnUse" x="3" y="13" width="12" height="15">
<path d="M3.10799 13.2769H14.892V27.5281H3.10799V13.2769Z" fill="white"/>
</mask>
<g mask="url(#mask1)">
<path fill-rule="evenodd" clip-rule="evenodd" d="M11.6135 21.9181C11.5055 21.7477 11.8307 21.3685 11.3423 21.2773C10.2455 21.0733 9.1463 20.9413 8.0279 21.0409C6.3215 21.1957 5.4203 22.4665 5.8427 24.1261C6.0251 24.8449 6.4871 25.2817 7.2011 25.4473C9.6035 26.0029 11.5931 24.4333 11.6135 21.9193V21.9181ZM11.7551 25.4233C10.8815 26.4373 9.8459 27.1381 8.5547 27.3865C7.2863 27.6313 6.0311 27.6109 4.8779 26.9233C3.4559 26.0761 2.9699 24.5281 3.1415 22.9561C3.3791 20.7805 5.1311 19.5661 7.0115 19.2889C8.4239 19.0801 9.8111 19.2613 11.1911 19.5577C11.6147 19.6489 11.6159 19.6537 11.6135 19.2097C11.6099 18.7297 11.6159 18.2497 11.5619 17.7697C11.3891 16.2337 10.6163 15.5137 9.0611 15.4081C7.6523 15.3121 6.3251 15.6145 5.0339 16.1365C4.1219 16.5049 4.0679 16.4317 4.0043 15.4549C3.9551 14.7145 4.2683 14.3569 4.9163 14.0953C6.8303 13.3237 8.7887 13.0357 10.8167 13.5001C12.7871 13.9501 13.9187 15.3049 14.0591 17.3245C14.1911 19.1965 14.1155 21.0721 14.1095 22.9453C14.1059 23.8933 14.2727 24.7717 14.7419 25.5985C14.9951 26.0449 14.9351 26.2201 14.5067 26.5129C14.2465 26.6919 13.9836 26.8671 13.7183 27.0385C13.2767 27.3217 13.0175 27.2821 12.6575 26.8885C12.3551 26.5573 12.1463 26.1685 11.9375 25.7773C11.8799 25.6693 11.8247 25.5589 11.7551 25.4245" fill="#BBC1FF"/>
</g>
<path fill-rule="evenodd" clip-rule="evenodd" d="M39.4644 27.576C38.4156 27.5436 37.1328 27.3516 35.9244 26.8188C35.178 26.49 34.8288 25.5612 35.1552 24.8184C35.2896 24.51 35.5368 24.5808 35.7684 24.6708C36.414 24.9252 37.0548 25.1904 37.74 25.326C38.844 25.5456 39.948 25.6452 41.052 25.362C41.778 25.1736 42.3888 24.8184 42.5928 24.0132C42.7812 23.2632 42.5088 22.614 41.8212 22.206C41.1732 21.822 40.4436 21.648 39.7368 21.4188C38.9448 21.162 38.1324 20.9676 37.3872 20.5812C35.616 19.6596 34.8048 17.7156 35.5092 15.978C36.0492 14.646 37.1196 13.8936 38.4636 13.5264C40.2144 13.0476 41.9232 13.2984 43.5936 13.9224C44.184 14.1444 44.4456 14.5476 44.412 15.21C44.364 16.206 44.3196 16.2564 43.3944 15.882C42.024 15.3276 40.608 15.15 39.1584 15.4956C38.0568 15.7572 37.5432 16.6188 37.854 17.5872C37.9992 18.0384 38.3268 18.3192 38.7276 18.5388C39.4992 18.9588 40.3524 19.158 41.1756 19.4364C41.7732 19.638 42.3804 19.8096 42.9588 20.0652C45.8508 21.3408 45.6996 24.8832 43.6248 26.4456C42.6384 27.1884 41.3268 27.5808 39.4644 27.576Z" fill="#BBC1FF"/>
<mask id="mask2" mask-type="alpha" maskUnits="userSpaceOnUse" x="38" y="30" width="10" height="9">
<path d="M38.544 30.4633H47.232V38.9173H38.544V30.4633Z" fill="white"/>
</mask>
<g mask="url(#mask2)">
<path fill-rule="evenodd" clip-rule="evenodd" d="M42.5843 32.2597C41.4882 32.283 40.3939 32.3623 39.3059 32.4973C39.0587 32.5261 38.6855 32.6965 38.5667 32.3461C38.4515 32.0029 38.8091 31.8577 39.0467 31.7101C40.1507 31.0201 41.3675 30.6841 42.6479 30.5401C43.6789 30.4178 44.722 30.4416 45.7463 30.6109C47.0807 30.8377 47.3459 31.1185 47.1947 32.4661C46.9607 34.5673 46.2395 36.4825 44.8307 38.0977C44.6243 38.3341 44.3807 38.5405 44.1419 38.7469C43.9859 38.8825 43.7963 38.9929 43.5947 38.8501C43.3847 38.7013 43.5023 38.5021 43.5707 38.3341C44.0843 37.0741 44.5775 35.8093 44.8907 34.4821C44.9843 34.0873 45.0395 33.6877 45.0191 33.2821C44.9939 32.7781 44.8511 32.5993 44.3591 32.4397C43.7231 32.2321 43.0607 32.2789 42.5855 32.2597" fill="#BBC1FF"/>
</g>
</svg>
