<svg width="48" height="48" viewBox="0 0 48 48" fill="none" xmlns="http://www.w3.org/2000/svg">
<path fill-rule="evenodd" clip-rule="evenodd" d="M46.524 40.7592C46.3056 40.7652 46.086 40.7772 45.8664 40.7772H12.5232L12.5112 40.6752L33.0504 37.0596C31.782 35.5428 30.5808 34.1076 29.3784 32.6736C27.0708 29.9208 24.7656 27.168 22.4508 24.4224C22.2432 24.1752 22.1352 23.97 22.2624 23.6256C24.0852 18.6528 25.8924 13.674 27.7044 8.6976C27.7248 8.6424 27.7524 8.5908 27.7812 8.526C28.0548 8.6076 28.0956 8.8716 28.2072 9.066C34.1904 19.4172 40.17 29.772 46.1532 40.1244C46.2576 40.3068 46.3008 40.5408 46.5252 40.6404V40.7592H46.524Z" fill="#BBC1FF"/>
<mask id="mask0" mask-type="alpha" maskUnits="userSpaceOnUse" x="1" y="6" width="26" height="32">
<path d="M1.4844 6.12H26.118V37.0464H1.4844V6.12Z" fill="white"/>
</mask>
<g mask="url(#mask0)">
<path fill-rule="evenodd" clip-rule="evenodd" d="M1.4844 36.8064C1.7388 36.744 1.7616 36.4932 1.8636 36.3168C5.454 30.108 9.0396 23.8956 12.6216 17.6808C12.8124 17.352 13.02 17.0508 13.3188 16.8C17.4348 13.3596 21.5436 9.9072 25.6548 6.4596C25.788 6.3468 25.9308 6.2436 26.0892 6.12C26.1852 6.3768 26.0232 6.5268 25.9452 6.6912C21.3252 16.6188 16.6956 26.5428 12.0852 36.4752C11.8932 36.8856 11.6688 37.008 11.2308 37.0056C8.1984 36.9864 5.166 36.9936 2.1324 36.9972C1.9164 36.9972 1.7004 37.0296 1.4844 37.0452V36.8052L1.4844 36.8064Z" fill="#BBC1FF"/>
</g>
</svg>
