<svg width="121" height="48" viewBox="0 0 121 48" fill="none" xmlns="http://www.w3.org/2000/svg">
<g clip-path="url(#clip0)">
<path d="M96.2322 11.0013C102.869 11.0013 109.506 10.997 116.142 11.0035C118.34 11.0056 119.935 12.1003 120.465 13.9913C120.598 14.4656 120.635 14.9808 120.635 15.4766C120.645 21.2762 120.65 27.0758 120.639 32.8776C120.635 35.7151 118.948 37.385 116.093 37.3872C102.792 37.3914 89.4903 37.3914 76.189 37.3872C73.2656 37.3872 71.5893 35.6915 71.5871 32.7445C71.5829 27.0565 71.5829 21.3685 71.5871 15.6784C71.5893 12.6755 73.2506 11.0035 76.2384 11.0035C82.903 10.9992 89.5676 11.0013 96.2322 11.0013ZM103.513 30.9393C103.311 26.6937 103.131 22.6027 102.914 18.5138C102.822 16.7645 102.789 16.7966 101.008 16.8074C100.315 16.8117 99.9841 17.0714 99.733 17.7089C98.9109 19.8081 98.0223 21.8793 97.1573 23.9614C97.0435 24.234 96.9169 24.5001 96.7452 24.8843C95.848 22.6585 95.0066 20.57 94.1652 18.4794C93.4762 16.7666 93.4762 16.7988 91.5874 16.8074C90.7867 16.8095 90.482 17.0242 90.4626 17.8892C90.3854 21.4565 90.2265 25.0195 90.0935 28.5847C90.0656 29.3317 90.0291 30.0765 89.9904 30.9265C90.8447 30.9265 91.6281 30.9265 92.4738 30.9265C92.5704 27.8013 92.667 24.7727 92.7614 21.742C93.6951 23.6416 94.4721 25.5433 95.1912 27.4686C95.3972 28.0224 95.7686 28.1125 96.2279 28.0524C96.7795 27.9794 97.4707 28.3508 97.8098 27.5244C98.3915 26.1078 99.0182 24.7126 99.6299 23.3089C99.8575 22.7873 100.091 22.27 100.321 21.7506C100.366 21.7634 100.409 21.7785 100.454 21.7913C100.572 24.8092 100.688 27.8292 100.808 30.9372C101.736 30.9393 102.583 30.9393 103.513 30.9393ZM114.288 17.4062C112.375 16.728 110.54 16.4039 108.638 16.9426C106.868 17.4449 105.912 18.6404 105.797 20.4348C105.674 22.3086 106.333 23.4054 108.093 24.1889C108.806 24.5044 109.546 24.7534 110.265 25.0539C111.36 25.5111 111.8 26.1443 111.686 27.0543C111.579 27.9151 111.014 28.5203 109.864 28.559C108.585 28.6019 107.299 28.383 105.889 28.2671C105.779 28.7285 105.603 29.366 105.49 30.0142C105.462 30.1688 105.606 30.4779 105.734 30.5186C108.224 31.3128 110.71 31.5876 113.062 30.1087C115.355 28.6663 115.533 24.1374 112.476 23.0148C111.588 22.6885 110.716 22.3194 109.849 21.9416C108.965 21.5574 108.611 20.9714 108.739 20.2009C108.868 19.4432 109.426 18.9753 110.405 19.016C111.474 19.0611 112.538 19.2521 113.723 19.3938C113.886 18.8186 114.08 18.1382 114.288 17.4062ZM87.2065 19.4239C87.3675 18.9645 87.5543 18.4472 87.7281 17.9257C87.8805 17.4685 87.7367 17.1787 87.2387 17.0843C86.6377 16.9727 86.0453 16.7988 85.4422 16.7258C81.6667 16.2772 78.7883 18.2347 77.9856 21.8514C77.7881 22.7379 77.7259 23.6802 77.7709 24.5903C77.9405 28.0352 79.81 30.4113 82.8472 30.9672C83.8732 31.154 84.9614 31.1111 86.0088 31.0316C88.0866 30.8728 88.3763 30.2353 87.3375 28.4001C86.4489 28.4989 85.5688 28.6813 84.6909 28.677C82.6368 28.6663 81.3232 27.6425 81.0142 25.627C80.8317 24.4422 80.8639 23.1693 81.0828 21.9888C81.4456 20.0485 82.7442 19.1105 84.7317 19.1491C85.5302 19.1598 86.3244 19.3187 87.2065 19.4239Z" fill="#BBC1FF"/>
<path d="M45.8903 30.2098C44.6282 28.6579 44.6926 27.7715 46.2101 26.0715C45.783 25.3803 45.2292 24.7557 44.9781 24.0281C44.1238 21.5554 45.8302 19.1278 48.5454 18.8445C49.8483 18.7093 51.0975 18.8553 52.2651 19.5271C52.469 19.6451 52.8146 19.5893 53.0743 19.5271C53.8642 19.3339 54.6434 19.0978 55.6715 18.8102C55.5856 19.6881 55.738 20.493 55.4139 20.8106C55.0769 21.139 54.2785 20.9931 53.6667 21.0575C53.7698 21.4374 53.9114 21.8044 53.9672 22.1822C54.3042 24.4896 52.9026 26.3634 50.5459 26.6897C49.8096 26.7927 49.0477 26.739 48.2986 26.7004C47.5624 26.6639 46.985 27.076 46.9034 27.78C46.824 28.4605 47.176 28.8468 48.0195 28.9091C48.8802 28.9734 49.7453 28.9799 50.6103 29.0078C51.0288 29.0207 51.4474 29.0185 51.8638 29.04C53.6474 29.1258 54.7657 29.8664 55.0941 31.1757C55.474 32.6889 54.8644 34.1313 53.3383 34.9748C51.0138 36.2562 48.5325 36.3635 46.0577 35.5372C44.2869 34.9448 43.7675 32.8735 44.8944 31.3388C45.1884 30.9374 45.5512 30.5897 45.8903 30.2098ZM49.5285 30.7357C49.0477 30.7657 48.3715 30.7442 47.7233 30.8687C46.9034 31.0233 46.4462 31.708 46.414 32.573C46.3818 33.4552 46.8648 33.9961 47.6589 34.0776C48.6957 34.1828 49.7646 34.1978 50.7948 34.0647C51.3851 33.9875 52.0462 33.6526 52.454 33.2233C52.7674 32.8928 52.9155 32.1866 52.7975 31.7359C52.7052 31.3817 52.1278 31.0297 51.7028 30.9159C51.0717 30.7485 50.3827 30.7936 49.5285 30.7357ZM49.4276 25.1936C50.9322 25.2 51.7972 24.3179 51.7908 22.7896C51.7843 21.2678 50.9 20.3706 49.419 20.3814C47.9766 20.3921 47.118 21.2721 47.1009 22.7574C47.0794 24.2964 47.9315 25.1872 49.4276 25.1936Z" fill="#BBC1FF"/>
<path d="M8.61798 19.0718C8.61798 18.1574 8.61798 17.3525 8.61798 16.5476C8.61798 15.7706 8.61798 14.9957 8.61798 14.1458C9.3542 14.1458 10.0131 14.1458 10.7386 14.1458C10.7386 19.4796 10.7386 24.7876 10.7386 30.173C8.55144 30.7418 6.33849 31.038 4.10408 30.3704C2.52217 29.8982 1.46185 28.8207 0.993928 27.2453C0.470204 25.4852 0.517426 23.7123 1.26438 22.0123C2.31612 19.6169 4.83815 18.4107 7.66927 18.9043C7.94186 18.9537 8.21445 19.0009 8.61798 19.0718ZM8.62012 28.8572C8.62012 26.3481 8.62012 24.0707 8.62012 21.7934C8.62012 21.6539 8.6652 21.4908 8.60725 21.3813C8.50636 21.1881 8.37114 20.9134 8.20157 20.8683C5.9457 20.2823 3.73275 20.7159 3.16824 23.5685C2.99438 24.4485 3.02229 25.4079 3.1618 26.2987C3.39576 27.7754 4.38096 28.6748 5.86199 28.8401C6.73558 28.9366 7.62634 28.8572 8.62012 28.8572Z" fill="#BBC1FF"/>
<path d="M67.4188 24.7859C67.3437 25.3826 67.3072 25.9385 67.202 26.4815C66.6547 29.3105 64.695 30.8151 61.7029 30.7228C59.0886 30.6434 57.1268 28.8576 56.8434 26.1274C56.7275 25.0112 56.764 23.8329 56.9937 22.7361C57.5367 20.1539 59.5007 18.7523 62.2309 18.806C64.8066 18.8575 66.6633 20.39 67.1784 22.9185C67.305 23.5452 67.3437 24.1849 67.4188 24.7859ZM65.1586 24.8202C64.9891 23.9724 64.9118 23.131 64.6456 22.3518C64.2292 21.1262 63.3041 20.5703 61.997 20.5918C60.7199 20.6111 59.8785 21.1584 59.4535 22.3797C58.8954 23.981 58.8976 25.6165 59.4685 27.2134C59.8999 28.4197 60.7714 28.9778 62.0292 28.9842C63.2805 28.9907 64.2099 28.4326 64.622 27.2585C64.8968 26.4837 64.9848 25.6423 65.1586 24.8202Z" fill="#BBC1FF"/>
<path d="M29.0024 30.1856C26.9912 30.6278 25.0444 30.954 23.0547 30.5634C21.3998 30.2371 20.361 29.2219 20.1678 27.7365C19.9424 26.013 20.6207 24.5276 22.179 23.8966C23.132 23.5102 24.2181 23.4265 25.2548 23.2784C25.7399 23.2097 26.2486 23.3149 26.7422 23.3428C27.12 21.8339 26.4589 20.8272 24.9736 20.6813C24.3941 20.6233 23.8017 20.6405 23.2221 20.6941C22.6726 20.7457 22.1318 20.8895 21.5029 21.0097C21.4127 20.8122 21.2839 20.604 21.2152 20.3765C20.9362 19.4557 21.05 19.1509 21.9751 19.0757C23.3788 18.962 24.8191 18.8332 26.1992 19.0242C27.9056 19.2603 28.9123 20.4087 28.9767 22.1086C29.0775 24.7745 29.0024 27.4511 29.0024 30.1856ZM26.8753 26.981C26.8753 26.5066 26.9032 26.0323 26.8603 25.5622C26.8453 25.3905 26.6542 25.0857 26.5555 25.09C25.4866 25.1415 24.3876 25.12 23.3595 25.3733C22.5374 25.5751 22.2026 26.5217 22.3593 27.4403C22.4988 28.2581 23.0719 28.784 23.9605 28.8913C24.2653 28.9278 24.5722 28.945 24.877 28.9471C26.8775 28.9729 26.8775 28.9707 26.8753 26.981Z" fill="#BBC1FF"/>
<path d="M39.743 30.5403C39.743 28.3703 39.7451 26.3655 39.7408 24.3608C39.7387 23.8585 39.7558 23.352 39.685 22.8583C39.5713 22.0448 39.3867 21.1927 38.483 20.9115C37.4656 20.596 36.4139 20.7226 35.7099 21.5576C35.2312 22.1242 34.7977 22.8969 34.7354 23.6095C34.5702 25.4919 34.6109 27.3937 34.5873 29.2868C34.5702 30.5918 34.583 30.594 33.2415 30.551C32.9947 30.5424 32.75 30.5059 32.4452 30.478C32.4452 26.6682 32.4452 22.8969 32.4452 19.0441C32.999 19.0441 33.6837 18.8466 34.0486 19.1021C34.392 19.3425 34.4006 20.0615 34.5723 20.6282C34.7462 20.4479 34.9071 20.2762 35.0724 20.1066C36.3023 18.8252 38.2083 18.4088 39.8524 19.0806C41.2755 19.6623 41.8357 20.8814 41.8872 22.2766C41.9795 24.8394 41.9473 27.4044 41.9259 29.9693C41.9237 30.1625 41.6232 30.4845 41.4257 30.5167C40.9106 30.594 40.3804 30.5403 39.743 30.5403Z" fill="#BBC1FF"/>
<path d="M15.1044 20.8553C14.5807 20.8188 14.1471 20.7888 13.6491 20.7544C13.6491 20.1942 13.6491 19.6791 13.6491 19.0995C14.8297 19.0995 15.9844 19.0995 17.2401 19.0995C17.253 19.3507 17.2787 19.6168 17.2787 19.8808C17.2809 23.5576 17.2852 27.2344 17.2744 30.9112C17.2723 31.3813 17.2272 31.8599 17.1285 32.3193C16.8902 33.4161 16.2313 34.1587 15.1237 34.4399C13.999 34.7254 12.8786 34.6781 11.6787 34.3412C11.7882 33.7724 11.8848 33.268 11.9857 32.7421C12.4879 32.7872 12.9 32.8558 13.3121 32.858C14.454 32.8601 15.0786 32.3407 15.0915 31.2139C15.1259 27.7903 15.1044 24.369 15.1044 20.8553Z" fill="#BBC1FF"/>
<path d="M16.946 14.1307C16.946 15.0473 16.946 15.732 16.946 16.6592C16.1175 16.5605 15.2547 16.6442 14.6387 16.2965C14.3639 16.1419 14.3489 14.7274 14.6237 14.56C15.2311 14.1908 16.0961 14.2552 16.946 14.1307Z" fill="#BBC1FF"/>
</g>
<defs>
<clipPath id="clip0">
<rect width="120" height="47.6033" fill="white" transform="translate(0.645172)"/>
</clipPath>
</defs>
</svg>
