<svg width="48" height="48" viewBox="0 0 48 48" fill="none" xmlns="http://www.w3.org/2000/svg">
<path opacity="0.8" fill-rule="evenodd" clip-rule="evenodd" d="M34.3113 11.9257C36.5923 13.9474 38.2322 16.5934 39.0318 19.5371C42.1628 21.6549 44.0285 25.1989 43.9997 28.9879C43.9517 35.2259 38.8541 40.2442 32.6161 40.1962H23.9289L23.874 40.1413H23.9169V33.2524L23.9289 33.2402H32.6161C35.0148 33.2402 36.9597 31.2953 36.9597 28.8966C36.9597 26.4979 35.0148 24.553 32.6161 24.553V23.6862C32.6665 21.0258 31.4924 18.4879 29.4322 16.8047L34.3113 11.9257Z" fill="#BBC1FF"/>
<path fill-rule="evenodd" clip-rule="evenodd" d="M29.4062 16.8648H29.5052C29.4811 16.8447 29.4569 16.8247 29.4326 16.8048L34.2392 11.9982L34.2492 11.9113C27.7783 6.19909 17.9026 6.81617 12.1903 13.2871C10.6032 15.0832 9.45309 17.2225 8.82401 19.5372C8.90282 19.5049 8.98343 19.4781 9.06524 19.4568C10.8331 18.2855 12.9505 17.5982 15.2301 17.5851C15.9769 17.582 16.7148 17.6531 17.4347 17.7937C17.4711 17.7722 17.5053 17.7618 17.5352 17.7676C20.6278 14.37 25.8334 13.9738 29.4062 16.8648Z" fill="#BBC1FF"/>
<path opacity="0.4" d="M15.2301 17.5851C8.98968 17.6211 3.96418 22.709 4.00019 28.9495C4.0218 32.4334 5.64735 35.7133 8.41101 37.8359L13.4485 32.7984C11.2635 31.8116 10.2911 29.2376 11.2779 27.0526C12.2648 24.8676 14.8388 23.8951 17.0237 24.882C17.9866 25.3166 18.7573 26.0897 19.1943 27.0526L24.2318 22.0151C22.0901 19.2106 18.7573 17.5706 15.2301 17.5851V17.5851Z" fill="#BBC1FF"/>
<path opacity="0.6" fill-rule="evenodd" clip-rule="evenodd" d="M8.4231 37.8235L13.4462 32.8004C14.0077 33.0545 14.6142 33.1874 15.2301 33.1874H23.9173V40.141H15.2301C12.769 40.153 10.3727 39.3558 8.411 37.8719L8.4231 37.8235Z" fill="#BBC1FF"/>
</svg>
