<svg width="1922" height="152" viewBox="0 0 1922 152" fill="none" xmlns="http://www.w3.org/2000/svg">
<g opacity="0.14">
<mask id="mask0" mask-type="alpha" maskUnits="userSpaceOnUse" x="0" y="0" width="1920" height="152">
<rect width="1920" height="152" fill="#C4C4C4"/>
</mask>
<g mask="url(#mask0)">
<line x1="120.5" y1="-140" x2="120.5" y2="5098" stroke="#BBC1FF" stroke-dasharray="2 4"/>
<line x1="260.5" y1="-140" x2="260.5" y2="5098" stroke="#BBC1FF" stroke-dasharray="2 4"/>
<line x1="400.5" y1="-140" x2="400.5" y2="5098" stroke="#BBC1FF" stroke-dasharray="2 4"/>
<line x1="540.501" y1="-140" x2="540.501" y2="5098" stroke="#BBC1FF" stroke-dasharray="2 4"/>
<line x1="680.501" y1="-140" x2="680.501" y2="5098" stroke="#BBC1FF" stroke-dasharray="2 4"/>
<line x1="820.501" y1="-140" x2="820.501" y2="5098" stroke="#BBC1FF" stroke-dasharray="2 4"/>
<line x1="960.501" y1="-140" x2="960.501" y2="5098" stroke="#BBC1FF" stroke-dasharray="2 4"/>
<line x1="1100.5" y1="-140" x2="1100.5" y2="5098" stroke="#BBC1FF" stroke-dasharray="2 4"/>
<line x1="1240.5" y1="-140" x2="1240.5" y2="5098" stroke="#BBC1FF" stroke-dasharray="2 4"/>
<line x1="1380.5" y1="-140" x2="1380.5" y2="5098" stroke="#BBC1FF" stroke-dasharray="2 4"/>
<line x1="1520.5" y1="-140" x2="1520.5" y2="5098" stroke="#BBC1FF" stroke-dasharray="2 4"/>
<line x1="1660.5" y1="-140" x2="1660.5" y2="5098" stroke="#BBC1FF" stroke-dasharray="2 4"/>
<line x1="1800.5" y1="-140" x2="1800.5" y2="5098" stroke="#BBC1FF" stroke-dasharray="2 4"/>
<line x1="-4" y1="-0.5" x2="1916" y2="-0.499832" stroke="#BBC1FF" stroke-dasharray="2 4"/>
<line x1="120.5" y1="12" x2="120.5" y2="-12" stroke="#BBC1FF"/>
<line x1="260.5" y1="12" x2="260.5" y2="-12" stroke="#BBC1FF"/>
<line x1="400.5" y1="12" x2="400.5" y2="-12" stroke="#BBC1FF"/>
<line x1="540.5" y1="12" x2="540.5" y2="-12" stroke="#BBC1FF"/>
<line x1="680.5" y1="12" x2="680.5" y2="-12" stroke="#BBC1FF"/>
<line x1="820.5" y1="12" x2="820.5" y2="-12" stroke="#BBC1FF"/>
<line x1="960.5" y1="12" x2="960.5" y2="-12" stroke="#BBC1FF"/>
<line x1="1100.5" y1="12" x2="1100.5" y2="-12" stroke="#BBC1FF"/>
<line x1="1240.5" y1="12" x2="1240.5" y2="-12" stroke="#BBC1FF"/>
<line x1="1380.5" y1="12" x2="1380.5" y2="-12" stroke="#BBC1FF"/>
<line x1="1520.5" y1="12" x2="1520.5" y2="-12" stroke="#BBC1FF"/>
<line x1="1660.5" y1="12" x2="1660.5" y2="-12" stroke="#BBC1FF"/>
<line x1="1800.5" y1="12" x2="1800.5" y2="-12" stroke="#BBC1FF"/>
<line x1="-4" y1="151.5" x2="1916" y2="151.5" stroke="#BBC1FF" stroke-dasharray="2 4"/>
<line x1="109" y1="151.5" x2="133" y2="151.5" stroke="#BBC1FF"/>
<line x1="120.5" y1="164" x2="120.5" y2="140" stroke="#BBC1FF"/>
<line x1="249" y1="151.5" x2="273" y2="151.5" stroke="#BBC1FF"/>
<line x1="260.5" y1="164" x2="260.5" y2="140" stroke="#BBC1FF"/>
<line x1="389" y1="151.5" x2="413" y2="151.5" stroke="#BBC1FF"/>
<line x1="400.5" y1="164" x2="400.5" y2="140" stroke="#BBC1FF"/>
<line x1="529" y1="151.5" x2="553" y2="151.5" stroke="#BBC1FF"/>
<line x1="540.5" y1="164" x2="540.5" y2="140" stroke="#BBC1FF"/>
<line x1="669" y1="151.5" x2="693" y2="151.5" stroke="#BBC1FF"/>
<line x1="680.5" y1="164" x2="680.5" y2="140" stroke="#BBC1FF"/>
<line x1="809" y1="151.5" x2="833" y2="151.5" stroke="#BBC1FF"/>
<line x1="820.5" y1="164" x2="820.5" y2="140" stroke="#BBC1FF"/>
<line x1="949" y1="151.5" x2="973" y2="151.5" stroke="#BBC1FF"/>
<line x1="960.5" y1="164" x2="960.5" y2="140" stroke="#BBC1FF"/>
<line x1="1089" y1="151.5" x2="1113" y2="151.5" stroke="#BBC1FF"/>
<line x1="1100.5" y1="164" x2="1100.5" y2="140" stroke="#BBC1FF"/>
<line x1="1229" y1="151.5" x2="1253" y2="151.5" stroke="#BBC1FF"/>
<line x1="1240.5" y1="164" x2="1240.5" y2="140" stroke="#BBC1FF"/>
<line x1="1369" y1="151.5" x2="1393" y2="151.5" stroke="#BBC1FF"/>
<line x1="1380.5" y1="164" x2="1380.5" y2="140" stroke="#BBC1FF"/>
<line x1="1509" y1="151.5" x2="1533" y2="151.5" stroke="#BBC1FF"/>
<line x1="1520.5" y1="164" x2="1520.5" y2="140" stroke="#BBC1FF"/>
<line x1="1649" y1="151.5" x2="1673" y2="151.5" stroke="#BBC1FF"/>
<line x1="1660.5" y1="164" x2="1660.5" y2="140" stroke="#BBC1FF"/>
<line x1="1789" y1="151.5" x2="1813" y2="151.5" stroke="#BBC1FF"/>
<line x1="1800.5" y1="164" x2="1800.5" y2="140" stroke="#BBC1FF"/>
</g>
</g>
</svg>
