<svg width="14" height="14" viewBox="0 0 14 14" fill="none" xmlns="http://www.w3.org/2000/svg">
<path d="M7 3.40625C7.625 3.40625 8.21875 3.59375 8.78125 3.90625C9.34375 4.21875 9.78125 4.65625 10.0938 5.21875C10.4062 5.78125 10.5938 6.375 10.5938 7C10.5938 7.65625 10.4062 8.25 10.0938 8.8125C9.78125 9.375 9.34375 9.8125 8.78125 10.125C8.21875 10.4375 7.625 10.5938 7 10.5938C6.34375 10.5938 5.75 10.4375 5.1875 10.125C4.625 9.8125 4.1875 9.375 3.875 8.8125C3.5625 8.25 3.40625 7.65625 3.40625 7C3.40625 6.375 3.5625 5.78125 3.875 5.21875C4.1875 4.65625 4.625 4.21875 5.1875 3.90625C5.75 3.59375 6.34375 3.40625 7 3.40625ZM7 9.34375C7.625 9.34375 8.1875 9.125 8.65625 8.65625C9.09375 8.21875 9.34375 7.65625 9.34375 7C9.34375 6.375 9.09375 5.8125 8.65625 5.34375C8.1875 4.90625 7.625 4.65625 7 4.65625C6.34375 4.65625 5.78125 4.90625 5.34375 5.34375C4.875 5.8125 4.65625 6.375 4.65625 7C4.65625 7.65625 4.875 8.21875 5.34375 8.65625C5.78125 9.125 6.34375 9.34375 7 9.34375ZM11.5938 3.25C11.5938 3.03125 11.5 2.84375 11.3438 2.65625C11.1562 2.5 10.9688 2.40625 10.75 2.40625C10.5 2.40625 10.3125 2.5 10.1562 2.65625C9.96875 2.84375 9.90625 3.03125 9.90625 3.25C9.90625 3.5 9.96875 3.6875 10.1562 3.84375C10.3125 4.03125 10.5 4.09375 10.75 4.09375C10.9688 4.09375 11.1562 4.03125 11.3125 3.84375C11.4688 3.6875 11.5625 3.5 11.5938 3.25ZM13.9688 4.09375C13.9688 4.6875 14 5.65625 14 7C14 8.375 13.9688 9.34375 13.9375 9.9375C13.9062 10.5312 13.8125 11.0312 13.6875 11.4688C13.5 12 13.1875 12.4688 12.8125 12.8438C12.4375 13.2188 11.9688 13.5 11.4688 13.6875C11.0312 13.8438 10.5 13.9375 9.90625 13.9688C9.3125 14 8.34375 14 7 14C5.625 14 4.65625 14 4.0625 13.9688C3.46875 13.9375 2.96875 13.8438 2.53125 13.6562C2 13.5 1.53125 13.2188 1.15625 12.8438C0.78125 12.4688 0.5 12 0.3125 11.4688C0.15625 11.0312 0.0625 10.5312 0.03125 9.9375C0 9.34375 0 8.375 0 7C0 5.65625 0 4.6875 0.03125 4.09375C0.0625 3.5 0.15625 2.96875 0.3125 2.53125C0.5 2.03125 0.78125 1.5625 1.15625 1.1875C1.53125 0.8125 2 0.5 2.53125 0.3125C2.96875 0.1875 3.46875 0.09375 4.0625 0.0625C4.65625 0.03125 5.625 0 7 0C8.34375 0 9.3125 0.03125 9.90625 0.0625C10.5 0.09375 11.0312 0.1875 11.4688 0.3125C11.9688 0.5 12.4375 0.8125 12.8125 1.1875C13.1875 1.5625 13.5 2.03125 13.6875 2.53125C13.8125 2.96875 13.9062 3.5 13.9688 4.09375ZM12.4688 11.125C12.5938 10.7812 12.6562 10.2188 12.7188 9.4375C12.7188 9 12.75 8.34375 12.75 7.5V6.5C12.75 5.65625 12.7188 5 12.7188 4.5625C12.6562 3.78125 12.5938 3.21875 12.4688 2.875C12.2188 2.25 11.75 1.78125 11.125 1.53125C10.7812 1.40625 10.2188 1.34375 9.4375 1.28125C8.96875 1.28125 8.3125 1.25 7.5 1.25H6.5C5.65625 1.25 5 1.28125 4.5625 1.28125C3.78125 1.34375 3.21875 1.40625 2.875 1.53125C2.21875 1.78125 1.78125 2.25 1.53125 2.875C1.40625 3.21875 1.3125 3.78125 1.28125 4.5625C1.25 5.03125 1.25 5.6875 1.25 6.5V7.5C1.25 8.34375 1.25 9 1.28125 9.4375C1.3125 10.2188 1.40625 10.7812 1.53125 11.125C1.78125 11.7812 2.25 12.2188 2.875 12.4688C3.21875 12.5938 3.78125 12.6875 4.5625 12.7188C5 12.75 5.65625 12.75 6.5 12.75H7.5C8.34375 12.75 9 12.75 9.4375 12.7188C10.2188 12.6875 10.7812 12.5938 11.125 12.4688C11.75 12.2188 12.2188 11.75 12.4688 11.125Z" fill="#BBC1FF"/>
</svg>
