<svg width="48" height="48" viewBox="0 0 48 48" fill="none" xmlns="http://www.w3.org/2000/svg">
<path fill-rule="evenodd" clip-rule="evenodd" d="M2.4756 3.22559H45.5244V46.2744H2.4756V3.22559ZM25.9224 36.762V23.0208H21.8856V36.7608C21.8856 37.7232 21.6936 38.3796 21.3096 38.7312C20.9256 39.084 20.3976 39.2592 19.7244 39.2592C19.0512 39.2592 18.5232 39.0672 18.138 38.6832C17.8176 38.4276 17.466 37.9464 17.082 37.2432L13.8144 39.1632C14.9664 41.6628 16.9848 42.912 19.8684 42.912C21.726 42.912 23.1996 42.3996 24.288 41.3748C25.3776 40.3488 25.9224 38.8116 25.9224 36.762ZM35.4348 42.912C37.4208 42.912 39.0384 42.4152 40.2876 41.4228C41.5368 40.4292 42.162 39.036 42.162 37.242C42.162 35.6412 41.7132 34.3596 40.8168 33.3984C39.984 32.5656 38.6388 31.7328 36.78 30.9L35.82 30.516C34.8588 30.0672 34.2024 29.6832 33.8496 29.3628C33.4968 29.0424 33.3216 28.6092 33.3216 28.0656C33.3216 27.5208 33.4968 27.0888 33.8496 26.7684C34.2024 26.448 34.6656 26.2884 35.2428 26.2884C35.8188 26.2884 36.3156 26.4156 36.732 26.6724C37.1484 26.928 37.5168 27.3768 37.8372 28.0164L41.0088 25.9992C40.368 24.8472 39.5832 24.0132 38.6544 23.5008C37.7256 22.9884 36.588 22.7328 35.2428 22.7328C33.4488 22.7328 32.0076 23.244 30.9192 24.2688C29.8296 25.2948 29.2848 26.5752 29.2848 28.1136C29.2848 29.6508 29.7336 30.9324 30.63 31.9572C31.3992 32.79 32.5848 33.5268 34.1856 34.1676L35.1468 34.6476C36.3 35.16 37.0368 35.544 37.3572 35.8008C37.8696 36.1848 38.1252 36.6816 38.1252 37.29C38.1252 37.8984 37.8696 38.3952 37.3572 38.7792C36.8448 39.1632 36.1716 39.3552 35.3388 39.3552C33.738 39.3552 32.424 38.5236 31.3992 36.858L28.1316 38.7792C28.7615 39.9846 29.6877 41.01 30.8232 41.7588C32.1036 42.5268 33.6408 42.9108 35.4348 42.9108V42.912Z" fill="#BBC1FF"/>
</svg>
