<svg width="143" height="48" viewBox="0 0 143 48" fill="none" xmlns="http://www.w3.org/2000/svg">
<path d="M5.23108 21.755C5.23108 12.6399 12.6511 5.21984 21.7662 5.21984C30.8812 5.21984 38.3013 12.6399 38.3013 21.755H43.5324C43.5324 16.4565 47.8429 12.146 53.1413 12.146C58.4398 12.146 62.7504 16.4565 62.7504 21.755H67.9814C67.9814 13.5716 61.3247 6.91489 53.1413 6.91489C48.4266 6.91489 44.2171 9.13753 41.5005 12.5725C38.0094 5.16372 30.4771 0 21.755 0C9.75494 0 0 9.75493 0 21.755H5.23108Z" fill="#00F0FF"/>
<path d="M62.3122 26.9524H67.8464L59.5507 47.4276H54.6789L46.3833 26.9524H51.9174L57.1148 40.8158L62.3122 26.9524ZM12.168 26.3687C9.22697 26.3687 6.91454 27.6596 5.23072 30.2527V26.9524H0.0333252V47.4276H5.23072V37.0216C5.23072 35.3154 5.67974 33.9234 6.57778 32.857C7.47582 31.7793 8.60957 31.2517 9.97907 31.2517C12.763 31.2517 14.1437 32.711 14.1437 35.6297V47.4389H19.3411V33.4632C19.3411 31.3191 18.6901 29.6016 17.3767 28.2994C16.0745 27.0197 14.3346 26.3687 12.168 26.3687ZM38.2897 37.5155C38.2897 39.1657 37.8519 40.5127 36.9876 41.5567C36.1232 42.6007 34.967 43.1283 33.5413 43.1283C30.7574 43.1283 29.3767 41.5792 29.3767 38.4697V26.9524H24.1793V39.6596C24.1793 42.2976 24.8865 44.3519 26.3009 45.8112C27.7153 47.2705 29.5451 48.0001 31.7677 48.0001C34.7425 48.0001 36.909 46.7317 38.2897 44.2059V47.4276H43.4871V26.9524H38.2897V37.5155ZM105.934 26.3687C102.993 26.3687 100.681 27.6596 98.997 30.2527V26.9524H93.7997V47.4276H98.997V37.0216C98.997 35.3154 99.446 33.9234 100.344 32.857C101.242 31.7793 102.376 31.2517 103.745 31.2517C106.529 31.2517 107.91 32.711 107.91 35.6297V47.4389H113.107V33.4632C113.107 31.3191 112.456 29.6016 111.143 28.2994C109.852 27.0197 108.112 26.3687 105.934 26.3687ZM89.6799 38.4248H73.9081C74.0765 39.9964 74.6602 41.2424 75.6817 42.1629C76.7033 43.0834 77.983 43.5436 79.5208 43.5436C82.0466 43.5436 83.9325 42.2864 85.1785 39.7831L89.0625 42.017C87.1317 46.002 83.9325 48.0001 79.4423 48.0001C76.5237 48.0001 74.0428 46.9898 71.9886 44.9693C69.9343 42.9487 68.9128 40.3556 68.9128 37.19C68.9128 34.002 69.9455 31.3977 72.0335 29.3883C74.1102 27.3789 76.6583 26.3799 79.6892 26.3799C82.6078 26.3799 84.9989 27.334 86.8735 29.2536C88.7482 31.1619 89.6799 33.6203 89.6799 36.6175V38.4248ZM84.8866 34.6194C84.6397 33.2723 84.0447 32.2171 83.113 31.465C82.1813 30.7129 80.9802 30.3312 79.5208 30.3312C78.1738 30.3312 76.9951 30.7354 75.9961 31.5436C74.9858 32.3518 74.301 33.3846 73.9081 34.6194H84.8866ZM123.188 43.2069L133.998 31.1507V26.9412H117.654V31.1507H127.97L117.194 43.2069V47.4164H134.705V43.2069H123.188ZM140.037 31.4201C140.733 31.4201 141.328 31.1732 141.822 30.6792C142.316 30.1853 142.563 29.5904 142.563 28.8944C142.563 28.1984 142.316 27.6035 141.822 27.1095C141.328 26.6156 140.733 26.3687 140.037 26.3687C139.341 26.3687 138.746 26.6156 138.253 27.1095C137.759 27.6035 137.512 28.1984 137.512 28.8944C137.512 29.5904 137.759 30.1853 138.253 30.6792C138.746 31.1732 139.341 31.4201 140.037 31.4201ZM140.037 26.7728C140.621 26.7728 141.126 26.9748 141.53 27.3902C141.934 27.8055 142.148 28.2994 142.148 28.8944C142.148 29.4781 141.946 29.9833 141.53 30.3986C141.126 30.8139 140.621 31.016 140.037 31.016C139.454 31.016 138.948 30.8139 138.544 30.3986C138.14 29.9833 137.927 29.4893 137.927 28.8944C137.927 28.3107 138.129 27.8055 138.544 27.3902C138.948 26.9748 139.454 26.7728 140.037 26.7728ZM141.104 30.2751L140.419 29.0515C140.61 29.0066 140.778 28.9281 140.902 28.7934C141.025 28.6586 141.093 28.5015 141.093 28.2994C141.093 28.0637 141.014 27.8841 140.857 27.7382C140.7 27.5922 140.486 27.5249 140.206 27.5249H139.083V30.2863H139.499V29.074H139.959L140.644 30.2751H141.104ZM140.138 27.8841C140.498 27.8841 140.677 28.0188 140.677 28.2994C140.677 28.5801 140.498 28.726 140.138 28.726H139.499V27.8841H140.138Z" fill="white"/>
</svg>
