<svg width="48" height="48" viewBox="0 0 48 48" fill="none" xmlns="http://www.w3.org/2000/svg">
<path fill-rule="evenodd" clip-rule="evenodd" d="M24.0756 47.484C23.4668 47.484 22.8684 47.3269 22.338 47.028L16.6716 43.6452C16.062 43.3404 16.0008 43.0968 16.488 42.9132C17.3711 42.6223 18.2275 42.2557 19.0476 41.8176C19.17 41.6952 19.3224 41.6952 19.5036 41.8176L23.8008 44.376C23.8798 44.4355 23.9761 44.4677 24.075 44.4677C24.1739 44.4677 24.2702 44.4355 24.3492 44.376L41.2596 34.596C41.3808 34.536 41.442 34.3824 41.442 34.14V14.6688C41.442 14.4852 41.3508 14.3328 41.1684 14.2116L24.348 4.52402C24.269 4.46453 24.1727 4.43236 24.0738 4.43236C23.9749 4.43236 23.8786 4.46453 23.7996 4.52402L6.9816 14.2128C6.7992 14.334 6.708 14.4864 6.708 14.6688V34.14C6.708 34.3836 6.7992 34.536 6.9816 34.5972L11.5524 37.3392C12.7104 37.8876 13.6704 37.9488 14.4324 37.5228C15.1932 37.0956 15.5748 36.4548 15.5748 35.6028V16.3152C15.6348 16.1928 15.7116 16.0872 15.8028 15.9948C15.844 15.9513 15.8937 15.9167 15.9488 15.8932C16.0039 15.8697 16.0633 15.8577 16.1232 15.858H18.2256C18.408 15.858 18.5448 15.9036 18.636 15.9948C18.7272 16.086 18.774 16.2228 18.774 16.4064V35.6016C18.774 37.2468 18.3312 38.5416 17.448 39.486C16.5648 40.4304 15.33 40.902 13.746 40.902C13.1364 40.902 12.6492 40.842 12.2832 40.7208C11.6136 40.5984 10.8216 40.2936 9.9072 39.8064L5.4276 37.2468C4.88811 36.9509 4.44432 36.5071 4.1484 35.9676C3.84106 35.4076 3.68396 34.7776 3.6924 34.1388V14.67C3.6924 14.0604 3.8436 13.482 4.1484 12.9324C4.4532 12.384 4.8804 11.958 5.4276 11.6532L22.338 1.87322C22.8252 1.56842 23.4048 1.41602 24.0756 1.41602C24.7452 1.41602 25.3236 1.56842 25.812 1.87202L42.7224 11.652C43.2708 11.958 43.6968 12.384 44.0016 12.9324C44.3064 13.4808 44.4576 14.0604 44.4576 14.67V34.1388C44.4576 34.8096 44.3064 35.4192 44.0016 35.9676C43.6968 36.516 43.2696 36.942 42.7224 37.2468L25.812 47.028C25.2636 47.3328 24.684 47.4852 24.0744 47.4852L24.0756 47.484ZM37.6956 28.2888C37.6956 30.1176 36.9636 31.5336 35.5008 32.5392C34.038 33.5448 31.9668 34.0476 29.2848 34.0476C25.9332 34.0476 23.526 33.3768 22.0644 32.0364C20.9064 31.0008 20.3268 29.5992 20.3268 27.8316C20.3268 27.7104 20.3736 27.6036 20.4648 27.5124C20.556 27.4212 20.6928 27.3756 20.8752 27.3756H22.9776C23.2824 27.3756 23.466 27.4968 23.526 27.7404C23.7096 28.9596 24.1356 29.8128 24.8064 30.3C25.6584 30.8484 27.1524 31.1232 29.2848 31.1232C31.0524 31.1232 32.3472 30.9096 33.1704 30.4824C33.9924 30.0564 34.374 29.3544 34.3128 28.38C34.3128 27.7716 34.038 27.3144 33.4896 27.0096C32.6376 26.5824 30.9456 26.2476 28.4172 26.004C25.8876 25.7604 24.0444 25.3032 22.8864 24.6324C21.546 23.8404 20.8908 22.5756 20.922 20.8404C20.952 19.1028 21.6372 17.7624 22.9776 16.818C24.3192 15.8736 26.208 15.4008 28.6452 15.4008C31.326 15.4008 33.3528 15.8736 34.7244 16.8168C36.0948 17.7624 36.8724 19.2408 37.0548 21.2508C37.0548 21.4332 37.0092 21.5712 36.918 21.6624C36.8768 21.7059 36.8271 21.7405 36.772 21.764C36.7169 21.7876 36.6575 21.7995 36.5976 21.7992H34.3128C34.0692 21.7992 33.9168 21.6768 33.8556 21.4332C33.612 20.2752 33.1092 19.4688 32.3472 19.0116C31.5852 18.5544 30.336 18.3252 28.5996 18.3252C26.8632 18.3252 25.6596 18.6 24.9888 19.1484C24.5016 19.5144 24.2568 20.0316 24.2568 20.7024C24.2568 21.1284 24.3792 21.4644 24.624 21.708C24.8676 21.9516 25.3848 22.164 26.1768 22.3476C26.9688 22.53 28.2492 22.7436 30.0168 22.9872C32.82 23.3532 34.7688 23.8716 35.8668 24.5412C37.0848 25.3332 37.6944 26.5824 37.6944 28.2888H37.6956Z" fill="#BBC1FF"/>
</svg>
