<svg width="48" height="48" viewBox="0 0 48 48" fill="none" xmlns="http://www.w3.org/2000/svg">
<path fill-rule="evenodd" clip-rule="evenodd" d="M24.45 12.2063V12.2789C20.4297 12.2789 16.6758 12.7875 13.1883 13.8047C9.89451 14.8219 7.27892 16.1781 5.34141 17.8735C3.4039 19.5688 2.43516 21.3609 2.43516 23.25C2.43516 25.1391 3.4039 26.9313 5.34141 28.6266C7.27892 30.3219 9.89451 31.6781 13.1883 32.6953C16.6758 33.7125 20.4297 34.2211 24.45 34.2211C28.4703 34.2211 32.2242 33.7125 35.7117 32.6953C39.0055 31.6781 41.6211 30.3219 43.5586 28.6266C45.4961 26.9313 46.4648 25.1391 46.4648 23.25C46.4648 21.3609 45.4961 19.5688 43.5586 17.8735C41.6211 16.1781 39.0055 14.8219 35.7117 13.8047C32.2242 12.7391 28.4703 12.2063 24.45 12.2063ZM24.45 11.0438C28.6641 11.0438 32.5633 11.6008 36.1477 12.7149C39.6836 13.7805 42.493 15.2457 44.5758 17.1106C46.6586 18.9754 47.7 21.0219 47.7 23.25C47.7 25.4782 46.6586 27.5246 44.5758 29.3895C42.493 31.2543 39.6836 32.7195 36.1477 33.7852C32.5633 34.8992 28.6641 35.4563 24.45 35.4563C20.2359 35.4563 16.3367 34.8992 12.7523 33.7852C9.21639 32.7195 6.40704 31.2543 4.32422 29.3895C2.2414 27.5246 1.2 25.4782 1.2 23.25C1.2 21.0219 2.2414 18.9754 4.32422 17.1106C6.40704 15.2457 9.21639 13.7805 12.7523 12.7149C16.3367 11.6008 20.2359 11.0438 24.45 11.0438ZM17.0391 22.2328V22.3055C17.1844 21.482 17.148 20.8887 16.9301 20.5254C16.7121 20.1621 16.3125 19.932 15.7312 19.8352C15.3437 19.7867 14.6656 19.7625 13.6969 19.7625H12.9703L11.9531 24.9211H12.607C14.0117 24.9211 14.9562 24.8242 15.4406 24.6305C16.2641 24.243 16.7969 23.4438 17.0391 22.2328ZM8.24766 30.0797L10.6453 17.8735H15.8039C17.3539 17.8735 18.468 18.2609 19.1461 19.036C19.8242 19.811 20.0664 20.8524 19.8727 22.1602C19.6789 23.468 19.0977 24.5578 18.1289 25.4297C17.4508 26.1078 16.6273 26.5195 15.6586 26.6649C15.0773 26.8102 14.0359 26.8828 12.5344 26.8828L11.5898 26.8102L10.9359 30.0797H8.24766ZM19.3641 26.8102L21.7617 14.6039H24.45L23.7961 17.8008H24.668C25.9273 17.8008 26.8234 17.825 27.3562 17.8735C28.2281 18.0188 28.8578 18.2731 29.2453 18.6363C29.6328 18.9996 29.8266 19.5688 29.8266 20.3438C29.7781 20.8766 29.5602 22.1602 29.1727 24.1945L28.5914 26.8102H25.9031L26.4844 24.0492C26.8234 22.4023 27.0051 21.3852 27.0293 20.9977C27.0535 20.6102 26.993 20.3317 26.8477 20.1621C26.7023 19.9926 26.4359 19.8836 26.0484 19.8352H23.4328L22.0523 26.8102H19.3641ZM37.8914 22.2328C38.0367 21.4578 38.0004 20.8887 37.7824 20.5254C37.5644 20.1621 37.1648 19.932 36.5836 19.8352C36.1961 19.7867 35.518 19.7625 34.5492 19.7625H33.8227L32.8055 24.9211H33.4594C34.8156 24.9211 35.7602 24.8242 36.293 24.6305C37.1164 24.243 37.6492 23.4438 37.8914 22.2328ZM29.1 30.0797L31.4977 17.8735H36.6562C38.2063 17.8735 39.3203 18.2609 39.9984 19.036C40.6766 19.811 40.9066 20.8524 40.6887 22.1602C40.4707 23.468 39.9016 24.5578 38.9812 25.4297C38.3031 26.1078 37.4797 26.5195 36.5109 26.6649C35.9297 26.8102 34.8641 26.8828 33.3141 26.8828L32.4422 26.8102L31.7883 30.0797H29.1Z" fill="#BBC1FF"/>
</svg>
