<svg width="49" height="48" viewBox="0 0 49 48" fill="none" xmlns="http://www.w3.org/2000/svg">
<g clip-path="url(#clip0)">
<path opacity="0.8" d="M23.8902 0.0134888C11.6864 0.0134888 12.4484 5.30564 12.4484 5.30564L12.4619 10.7886H24.1076V12.4347H7.83638C7.83638 12.4347 0.0272064 11.5491 0.0272064 23.8626C0.0273992 36.1764 6.84341 35.7398 6.84341 35.7398H10.9113V30.0257C10.9113 30.0257 10.6919 23.2097 17.6186 23.2097H29.169C29.169 23.2097 35.6585 23.3145 35.6585 16.9379V6.39442C35.6583 6.39442 36.6439 0.0134888 23.8902 0.0134888ZM17.4686 3.70063C18.6246 3.69966 19.5627 4.63595 19.5636 5.792C19.5636 5.79335 19.5636 5.79451 19.5636 5.79586C19.5646 6.95191 18.6283 7.88994 17.4722 7.8909C17.4709 7.8909 17.4697 7.8909 17.4684 7.8909C16.3123 7.89186 15.3743 6.95557 15.3734 5.79952C15.3734 5.79817 15.3734 5.79702 15.3734 5.79567C15.3724 4.63962 16.3087 3.70159 17.4647 3.70063C17.4661 3.70063 17.4674 3.70063 17.4686 3.70063Z" fill="#BBC1FF"/>
<path d="M24.2365 47.8356C36.4403 47.8356 35.6782 42.5434 35.6782 42.5434L35.6648 37.0606H24.0189V35.4146H40.2901C40.2901 35.4146 48.0992 36.3002 48.0992 23.9865C48.0992 11.6729 41.2832 12.1097 41.2832 12.1097H37.2154V17.8236C37.2154 17.8236 37.4348 24.6396 30.5081 24.6396H18.9577C18.9577 24.6396 12.4683 24.5348 12.4683 30.9116V41.4552C12.4683 41.4549 11.483 47.8356 24.2365 47.8356ZM30.6581 44.1486C29.5021 44.1496 28.5641 43.2133 28.5631 42.0573C28.5631 42.0559 28.5631 42.0548 28.5631 42.0534C28.5619 40.8974 29.4982 39.9593 30.6543 39.9582C30.6556 39.9582 30.657 39.9582 30.6583 39.9582C31.8144 39.9572 32.7524 40.8935 32.7533 42.0496C32.7533 42.0509 32.7533 42.0521 32.7533 42.0534C32.7543 43.2095 31.818 44.1475 30.662 44.1484C30.6606 44.1484 30.6593 44.1484 30.6581 44.1486Z" fill="#BBC1FF"/>
</g>
<defs>
<clipPath id="clip0">
<rect width="48.1928" height="48" fill="white"/>
</clipPath>
</defs>
</svg>
