<svg width="54" height="48" viewBox="0 0 54 48" fill="none" xmlns="http://www.w3.org/2000/svg">
<path d="M41.9529 16.6276C41.4509 16.4553 40.9448 16.2959 40.4349 16.1493C40.5195 15.8056 40.5977 15.4605 40.6695 15.1138C41.8187 9.53588 41.0673 5.04212 38.5016 3.5628C36.0418 2.14416 32.0184 3.62328 27.9551 7.15917C27.5548 7.50838 27.1633 7.86763 26.781 8.23672C26.5249 7.99137 26.2644 7.75073 25.9996 7.51501C21.7412 3.73419 17.4727 2.14096 14.9098 3.62456C12.4521 5.04725 11.7242 9.27195 12.7588 14.5582C12.8618 15.0818 12.9779 15.6024 13.1074 16.12C12.5034 16.2916 11.9202 16.4743 11.362 16.6688C6.36963 18.4093 3.18103 21.1373 3.18103 23.9669C3.18103 26.8895 6.60365 29.8208 11.8039 31.598C12.2256 31.7414 12.6509 31.8743 13.0792 31.9966C12.94 32.5542 12.8165 33.1156 12.7088 33.6802C11.7225 38.8747 12.4927 42.9992 14.944 44.4131C17.4757 45.873 21.7247 44.3725 25.8624 40.7556C26.1894 40.4697 26.5177 40.1664 26.8464 39.8486C27.2603 40.2481 27.6854 40.636 28.1212 41.0117C32.1289 44.4604 36.0871 45.8529 38.536 44.4354C41.0653 42.9712 41.8873 38.5403 40.82 33.1496C40.7386 32.7377 40.6437 32.3174 40.5373 31.8891C40.8356 31.801 41.1284 31.71 41.4141 31.6153C46.8202 29.8242 50.3373 26.9286 50.3373 23.9669C50.3371 21.1273 47.0459 18.3809 41.9529 16.6276ZM29.2776 8.67932C32.7589 5.6495 36.0127 4.45313 37.4955 5.3082C39.0744 6.21905 39.6886 9.89129 38.6965 14.7075C38.6316 15.0213 38.5608 15.3337 38.4845 15.6451C36.5282 15.1937 34.4037 14.8578 32.1794 14.649C30.8836 12.804 29.5411 11.1261 28.1932 9.67416C28.5464 9.3335 28.908 9.00181 29.2776 8.67932ZM17.1047 26.3842C17.531 27.2079 17.9768 28.0215 18.4417 28.8242C18.9159 29.6432 19.4096 30.4506 19.922 31.246C18.3778 31.0735 16.9213 30.8402 15.5762 30.5474C15.9925 29.2029 16.5054 27.8054 17.1047 26.3842ZM17.1023 21.6464C16.5157 20.2551 16.0137 18.8869 15.604 17.566C16.9495 17.2648 18.3842 17.0189 19.8791 16.8321C19.3788 17.6126 18.8966 18.4048 18.4335 19.2079C17.9708 20.0102 17.527 20.8232 17.1023 21.6464ZM18.1732 24.0154C18.7939 22.7235 19.463 21.4553 20.1789 20.2139V20.2143C20.8947 18.9724 21.6574 17.7583 22.4654 16.5743C23.8678 16.4683 25.3057 16.4128 26.7594 16.4128C28.2195 16.4128 29.6593 16.4688 31.0612 16.5756C31.8609 17.7577 32.6188 18.9677 33.3332 20.2034C34.0517 21.4423 34.7296 22.7041 35.366 23.987C34.7362 25.283 34.0602 26.5561 33.3398 27.8041H33.3396C32.6254 29.045 31.8708 30.2623 31.0775 31.4542C29.6783 31.5542 28.2325 31.6057 26.7592 31.6057C25.2918 31.6057 23.8644 31.56 22.4896 31.4708C21.6756 30.2817 20.9068 29.0623 20.1849 27.815C19.4664 26.5744 18.7954 25.3069 18.1732 24.0154ZM35.0848 28.8103C35.5592 27.9877 36.0151 27.1547 36.4523 26.3118C37.0826 27.7484 37.6139 29.1384 38.036 30.46C36.6686 30.772 35.1925 31.0233 33.6371 31.2099C34.1355 30.4198 34.6183 29.6196 35.0848 28.8103ZM36.4331 21.6479C35.9973 20.821 35.5451 20.0029 35.0767 19.194C34.6157 18.3977 34.1376 17.6115 33.6427 16.8357C35.1474 17.0257 36.5889 17.2781 37.9424 17.5871C37.5361 18.8897 37.0296 20.2517 36.4331 21.6479ZM26.7816 11.1146C27.7106 12.1212 28.6413 13.2451 29.5567 14.4646C27.6999 14.3767 25.84 14.3765 23.9832 14.4633C24.8994 13.2551 25.8378 12.1327 26.7816 11.1146ZM15.919 5.36804C17.4968 4.45484 20.9851 5.757 24.6618 9.02169C24.8969 9.23049 25.1328 9.4489 25.3692 9.67501C23.9993 11.146 22.6454 12.8209 21.3522 14.6462C19.1345 14.8518 17.0113 15.182 15.0596 15.6242C14.9393 15.1427 14.8314 14.6582 14.7354 14.1711V14.1713C13.8494 9.64189 14.438 6.22546 15.919 5.36804ZM13.6196 30.0565C13.2288 29.9445 12.8404 29.8231 12.4555 29.6921C10.1562 28.9061 8.25715 27.8847 6.95564 26.7704C5.7862 25.7687 5.19549 24.7743 5.19549 23.9671C5.19549 22.2502 7.75557 20.06 12.0253 18.5713C12.5613 18.3853 13.1025 18.215 13.6483 18.0605C14.2386 19.9799 15.0126 21.9866 15.9466 24.0161C15.0002 26.0756 14.2153 28.1145 13.6196 30.0565ZM24.5365 39.2389C22.7069 40.8383 20.8735 41.9727 19.2578 42.5436H19.2576C17.8056 43.0563 16.6492 43.071 15.9504 42.6679C14.4627 41.8101 13.8447 38.4982 14.688 34.0561C14.7882 33.5313 14.9032 33.0091 15.0323 32.4905C16.9638 32.9177 19.1018 33.225 21.3871 33.4105C22.6916 35.2463 24.058 36.934 25.435 38.4116C25.1422 38.6946 24.8428 38.9705 24.5365 39.2389ZM26.8374 36.962C25.8825 35.9317 24.9304 34.7922 24.0001 33.5665C24.9028 33.602 25.8235 33.6199 26.7592 33.6199C27.7204 33.6199 28.6706 33.5984 29.6058 33.5567C28.6875 34.8046 27.7602 35.9458 26.8374 36.962ZM39.0703 39.7649C38.7895 41.2788 38.2247 42.288 37.5265 42.6923C36.0403 43.5525 32.8622 42.4344 29.4349 39.4851C29.0418 39.147 28.646 38.786 28.249 38.4041C29.5778 36.9507 30.9056 35.2613 32.2016 33.3851C34.4815 33.1829 36.6351 32.8521 38.5882 32.4007C38.6841 32.7888 38.7698 33.1694 38.8434 33.5415C39.3155 35.9246 39.3828 38.0799 39.0703 39.7649ZM40.7805 29.7032C40.5225 29.7885 40.2579 29.871 39.9882 29.9509C39.3913 28.0617 38.5858 26.0525 37.6004 23.977C38.541 21.9505 39.3152 19.9673 39.8955 18.09C40.3778 18.2298 40.8461 18.377 41.2972 18.5324C45.661 20.0344 48.3228 22.2555 48.3228 23.9669C48.3228 25.7901 45.448 28.1566 40.7805 29.7032Z" fill="#BBC1FF"/>
<path d="M26.7592 28.1781C29.0848 28.1781 30.97 26.2928 30.97 23.9671C30.97 21.6417 29.0848 19.7563 26.7592 19.7563C24.4337 19.7563 22.5484 21.6417 22.5484 23.9671C22.5482 26.2928 24.4335 28.1781 26.7592 28.1781Z" fill="#BBC1FF"/>
</svg>
