<svg width="48" height="48" viewBox="0 0 48 48" fill="none" xmlns="http://www.w3.org/2000/svg">
<mask id="mask0" mask-type="alpha" maskUnits="userSpaceOnUse" x="1" y="1" width="46" height="46">
<path d="M1.2 1.27203H46.7292V46.8H1.2V1.27203Z" fill="white"/>
</mask>
<g mask="url(#mask0)">
<path fill-rule="evenodd" clip-rule="evenodd" d="M45.69 24.0576C45.6348 12.0276 35.994 2.31843 23.9724 2.31123C21.1242 2.30634 18.3029 2.86267 15.6697 3.94841C13.0365 5.03416 10.6431 6.62806 8.62605 8.63906C6.60903 10.6501 5.00799 13.0387 3.91438 15.6687C2.82077 18.2986 2.25602 21.1182 2.2524 23.9664C2.23687 26.8243 2.78706 29.657 3.87126 32.3012C4.95545 34.9455 6.55222 37.349 8.56954 39.3734C10.5869 41.3977 12.9848 43.0028 15.6253 44.0962C18.2658 45.1896 21.0965 45.7496 23.9544 45.744C35.946 45.7536 45.6024 36.1128 45.6912 24.0564L45.69 24.0576ZM25.3452 1.27203C26.0388 1.36563 26.7324 1.44963 27.4248 1.55403C31.0068 2.09403 34.2576 3.43923 37.2048 5.54643C39.1299 6.91832 40.8274 8.58425 42.2352 10.4832C44.1151 13.0036 45.4469 15.8894 46.1448 18.9552C46.8804 22.1556 46.9224 25.3668 46.2696 28.578C45.732 31.2287 44.7193 33.7603 43.2804 36.0504C41.7738 38.4719 39.8256 40.5886 37.5372 42.2904C35.0332 44.1717 32.1608 45.5039 29.1072 46.2C26.6196 46.7664 24.1092 46.9536 21.5676 46.668C18.0984 46.2768 14.8776 45.1836 11.9136 43.3272C9.49347 41.8186 7.37936 39.8674 5.682 37.5756C3.792 35.0292 2.4564 32.2092 1.794 29.1C1.5552 27.9792 1.44 26.832 1.266 25.6956C1.2528 25.602 1.2228 25.5108 1.2 25.4184V22.6548C1.2228 22.5624 1.2528 22.4724 1.2672 22.3788C1.4424 21.2328 1.5552 20.0724 1.8 18.9408C2.4684 15.834 3.8064 13.0188 5.7 10.4748C7.3968 8.18558 9.51114 6.23777 11.9316 4.73403C14.574 3.08643 17.424 2.01123 20.5044 1.55403C21.1956 1.45083 21.8892 1.36563 22.5816 1.27203H25.3452Z" fill="#BBC1FF"/>
</g>
<path fill-rule="evenodd" clip-rule="evenodd" d="M19.1089 36.0048L12.0061 14.8992C12.7081 14.8392 13.3597 14.7912 14.0089 14.724C14.3509 14.6892 14.6785 14.6136 14.8585 14.2596C14.9317 14.1258 14.9644 13.9736 14.9527 13.8214C14.941 13.6693 14.8853 13.5239 14.7925 13.4028C14.5813 13.0992 14.2573 13.0716 13.9177 13.0849C11.9341 13.1593 9.94926 13.23 7.96566 13.3008C7.89366 13.3032 7.82166 13.2912 7.68366 13.2792C9.31206 10.8144 11.3545 8.84525 13.8409 7.35125C17.5837 5.10245 21.6433 4.17845 25.9861 4.63685C30.1885 5.08085 33.8737 6.72725 37.0885 9.60365C36.8449 9.62525 36.6721 9.63485 36.5005 9.65645C35.0101 9.85085 33.7957 11.142 33.6445 12.6624C33.5233 13.908 33.9841 14.9832 34.5649 16.0368C35.2237 17.232 35.9269 18.4104 36.4765 19.6548C37.2037 21.3 37.3741 23.052 36.9241 24.8088C36.4609 26.6112 35.9281 28.3968 35.4085 30.1848C34.9237 31.8564 34.4173 33.5232 33.9181 35.1912C33.8641 35.3712 33.7957 35.5464 33.6973 35.8272L26.6593 14.8992C27.3637 14.8392 28.0213 14.7888 28.6777 14.7252C29.1937 14.6748 29.4889 14.4648 29.5657 14.1156C29.7085 13.4736 29.2777 13.0057 28.5937 13.074C25.3417 13.4004 22.0873 13.3716 18.8305 13.116C18.6289 13.1004 18.4189 13.0776 18.2221 13.1112C17.8069 13.1832 17.5705 13.4881 17.5645 13.8973C17.5597 14.2992 17.7685 14.5956 18.1921 14.6616C18.8125 14.7576 19.4401 14.8128 20.0665 14.8644C20.2645 14.88 20.3509 14.9412 20.4217 15.1356C21.3097 17.58 22.1941 20.0256 23.1205 22.4556C23.3341 23.016 23.2969 23.5032 23.1109 24.0492C22.3093 26.406 21.5389 28.7736 20.7505 31.1352C20.2189 32.7288 19.6777 34.32 19.1089 36.0048Z" fill="#BBC1FF"/>
<path fill-rule="evenodd" clip-rule="evenodd" d="M30.4079 42.4632C26.4479 43.7904 22.4879 43.8996 18.4499 42.7656L24.2627 25.878L24.3479 25.8744L30.4079 42.4632ZM6.13191 16.1232L15.4115 41.5392C6.44151 37.3344 1.73391 26.1048 6.13191 16.1244V16.1232ZM41.1599 14.892C46.0343 23.616 43.0511 35.5452 33.8147 40.8504C34.0427 40.1724 34.2467 39.546 34.4627 38.922C35.2223 36.7296 35.9879 34.5384 36.7487 32.346C37.3895 30.4956 38.0267 28.644 38.6651 26.7924C39.3023 24.9408 39.9887 23.1048 40.5611 21.234C41.1623 19.2732 41.3687 17.2536 41.1395 15.2016C41.1323 15.1174 41.1299 15.0329 41.1323 14.9484C41.1323 14.9304 41.1503 14.9124 41.1599 14.8932" fill="#BBC1FF"/>
</svg>
