<svg width="14" height="14" viewBox="0 0 14 14" fill="none" xmlns="http://www.w3.org/2000/svg">
<path d="M3.125 14V4.65625H0.21875V14H3.125ZM1.6875 3.375C2.125 3.375 2.53125 3.21875 2.875 2.875C3.1875 2.5625 3.375 2.15625 3.375 1.6875C3.375 1.25 3.1875 0.84375 2.875 0.5C2.53125 0.1875 2.125 0 1.6875 0C1.21875 0 0.8125 0.1875 0.5 0.5C0.15625 0.84375 0 1.25 0 1.6875C0 2.15625 0.15625 2.5625 0.5 2.875C0.8125 3.21875 1.21875 3.375 1.6875 3.375ZM14 14V8.875C14 7.4375 13.7812 6.375 13.375 5.6875C12.8125 4.84375 11.875 4.40625 10.5312 4.40625C9.84375 4.40625 9.28125 4.59375 8.78125 4.90625C8.3125 5.1875 7.96875 5.53125 7.78125 5.9375H7.75V4.65625H4.96875V14H7.84375V9.375C7.84375 8.65625 7.9375 8.09375 8.15625 7.71875C8.40625 7.21875 8.875 6.96875 9.5625 6.96875C10.2188 6.96875 10.6562 7.25 10.9062 7.8125C11.0312 8.15625 11.0938 8.6875 11.0938 9.4375V14H14Z" fill="#BBC1FF"/>
</svg>
